<svg xmlns="http://www.w3.org/2000/svg" xmlns:xlink="http://www.w3.org/1999/xlink" xmlns:lucid="lucid" width="661.72" height="181.72"><g transform="translate(8.986433520957803 8.986433520957803)" lucid:page-tab-id="zRQv2C4FNbAl"><path d="M0 0h643.74v455.4H0z" fill="#fff"/><path d="M152.73 138.56c0 7.82-31.72 14.17-70.86 14.17-39.13 0-70.86-6.35-70.86-14.17V25.2C11 17.35 42.75 11 81.88 11c39.14 0 70.86 6.36 70.86 14.2z" stroke="#000" stroke-width="2" fill="#fff"/><path d="M152.73 25.2c0 7.8-31.72 14.16-70.86 14.16C42.74 39.36 11 33 11 25.2" stroke="#000" stroke-width="2" fill="none"/><use xlink:href="#a" transform="matrix(1,0,0,1,16.013566479042197,44.35673202742859) translate(47 55.6)"/><path d="M632.73 138.56c0 7.82-31.72 14.17-70.86 14.17-39.13 0-70.86-6.35-70.86-14.17V25.2c0-7.84 31.74-14.2 70.87-14.2 39.14 0 70.86 6.36 70.86 14.2z" stroke="#000" stroke-width="2" fill="#fff"/><path d="M632.73 25.2c0 7.8-31.72 14.16-70.86 14.16C522.74 39.36 491 33 491 25.2" stroke="#000" stroke-width="2" fill="none"/><use xlink:href="#b" transform="matrix(1,0,0,1,496.0135664790422,44.35673202742859) translate(48 55.6)"/><path d="M312.73 138.56c0 7.82-31.72 14.17-70.86 14.17-39.13 0-70.86-6.35-70.86-14.17V25.2c0-7.84 31.74-14.2 70.87-14.2 39.14 0 70.86 6.36 70.86 14.2z" stroke="#000" stroke-width="2" fill="#fff"/><path d="M312.73 25.2c0 7.8-31.72 14.16-70.86 14.16C202.74 39.36 171 33 171 25.2" stroke="#000" stroke-width="2" fill="none"/><use xlink:href="#c" transform="matrix(1,0,0,1,176.01356647904223,44.35673202742859) translate(39.525 55.6)"/><path d="M472.73 138.56c0 7.82-31.72 14.17-70.86 14.17-39.13 0-70.86-6.35-70.86-14.17V25.2c0-7.84 31.74-14.2 70.87-14.2 39.14 0 70.86 6.36 70.86 14.2z" stroke="#000" stroke-width="2" fill="#fff"/><path d="M472.73 25.2c0 7.8-31.72 14.16-70.86 14.16C362.74 39.36 331 33 331 25.2" stroke="#000" stroke-width="2" fill="none"/><use xlink:href="#d" transform="matrix(1,0,0,1,336.0135664790422,44.35673202742859) translate(47.05 55.6)"/><defs><path d="M205 0l-28-72H64L36 0H1l101-248h38L239 0h-34zm-38-99l-47-123c-12 45-31 82-46 123h93" id="e"/><path d="M140-251c81 0 123 46 123 126C263-46 219 4 140 4 59 4 17-45 17-125s42-126 123-126zm0 227c63 0 89-41 89-101s-29-99-89-99c-61 0-89 39-89 99S79-25 140-24" id="f"/><g id="a"><use transform="matrix(0.05,0,0,0.05,0,0)" xlink:href="#e"/><use transform="matrix(0.05,0,0,0.05,12,0)" xlink:href="#e"/><use transform="matrix(0.05,0,0,0.05,24,0)" xlink:href="#f"/></g><path d="M30-248c87 1 191-15 191 75 0 78-77 80-158 76V0H30v-248zm33 125c57 0 124 11 124-50 0-59-68-47-124-48v98" id="g"/><path d="M160-131c35 5 61 23 61 61C221 17 115-2 30 0v-248c76 3 177-17 177 60 0 33-19 50-47 57zm-97-11c50-1 110 9 110-42 0-47-63-36-110-37v79zm0 115c55-2 124 14 124-45 0-56-70-42-124-44v89" id="h"/><path d="M185-189c-5-48-123-54-124 2 14 75 158 14 163 119 3 78-121 87-175 55-17-10-28-26-33-46l33-7c5 56 141 63 141-1 0-78-155-14-162-118-5-82 145-84 179-34 5 7 8 16 11 25" id="i"/><g id="b"><use transform="matrix(0.05,0,0,0.05,0,0)" xlink:href="#g"/><use transform="matrix(0.05,0,0,0.05,12,0)" xlink:href="#h"/><use transform="matrix(0.05,0,0,0.05,24,0)" xlink:href="#i"/></g><path d="M143 4C61 4 22-44 18-125c-5-107 100-154 193-111 17 8 29 25 37 43l-32 9c-13-25-37-40-76-40-61 0-88 39-88 99 0 61 29 100 91 101 35 0 62-11 79-27v-45h-74v-28h105v86C228-13 192 4 143 4" id="j"/><path d="M233-177c-1 41-23 64-60 70L243 0h-38l-65-103H63V0H30v-248c88 3 205-21 203 71zM63-129c60-2 137 13 137-47 0-61-80-42-137-45v92" id="k"/><g id="c"><use transform="matrix(0.05,0,0,0.05,0,0)" xlink:href="#e"/><use transform="matrix(0.05,0,0,0.05,12,0)" xlink:href="#j"/><use transform="matrix(0.05,0,0,0.05,26,0)" xlink:href="#f"/><use transform="matrix(0.05,0,0,0.05,40,0)" xlink:href="#k"/></g><path d="M212-179c-10-28-35-45-73-45-59 0-87 40-87 99 0 60 29 101 89 101 43 0 62-24 78-52l27 14C228-24 195 4 139 4 59 4 22-46 18-125c-6-104 99-153 187-111 19 9 31 26 39 46" id="l"/><g id="d"><use transform="matrix(0.05,0,0,0.05,0,0)" xlink:href="#l"/><use transform="matrix(0.05,0,0,0.05,12.950000000000001,0)" xlink:href="#k"/><use transform="matrix(0.05,0,0,0.05,25.900000000000002,0)" xlink:href="#i"/></g></defs></g></svg>