<svg xmlns="http://www.w3.org/2000/svg" xmlns:xlink="http://www.w3.org/1999/xlink" xmlns:lucid="lucid" width="1072.14" height="538.28"><g transform="translate(1.715827741931946 0)" lucid:page-tab-id="0_0"><path d="M0 0h1068.7v756.05H0z" fill="#fff"/><path d="M640 452c0 26.5-47.02 48-105.03 48-58 0-105.02-21.5-105.02-48V68c0-26.5 47.02-48 105.02-48C592.97 20 640 41.5 640 68z" stroke="#8b0000" stroke-width="2" fill="#fff"/><path d="M640 68c0 26.5-47.02 48-105.03 48-58 0-105.02-21.5-105.02-48" stroke="#8b0000" stroke-width="2" fill="none"/><path d="M1050.43 387.84c0 21.45-86.86 38.84-194 38.84-107.15 0-194-17.4-194-38.84V77.12c0-21.45 86.85-38.84 194-38.84 107.14 0 194 17.4 194 38.84z" stroke="#000" stroke-width="2" fill="#fff"/><path d="M1050.43 77.12c0 21.45-86.86 38.84-194 38.84-107.15 0-194-17.4-194-38.84" stroke="#000" stroke-width="2" fill="none"/><path d="M406.28 387.84c0 21.45-86.85 38.84-194 38.84-107.14 0-194-17.4-194-38.84V77.12c0-21.45 86.86-38.84 194-38.84 107.15 0 194 17.4 194 38.84z" stroke="#000" stroke-width="2" fill="#fff"/><path d="M406.28 77.12c0 21.45-86.85 38.84-194 38.84-107.14 0-194-17.4-194-38.84" stroke="#000" stroke-width="2" fill="none"/><path d="M247.54 166.68c0 22.1-17.9 40-40 40s-40-17.9-40-40 17.9-40 40-40 40 17.9 40 40z" stroke="#000" stroke-width="2" fill="#fff"/><use xlink:href="#a" transform="matrix(1,0,0,1,172.53734886737567,131.68417225806814) translate(24 38.6)"/><path d="M227.54 346.68c0 22.1-17.9 40-40 40s-40-17.9-40-40 17.9-40 40-40 40 17.9 40 40z" stroke="#000" stroke-width="2" fill="#fff"/><use xlink:href="#b" transform="matrix(1,0,0,1,152.53734886737567,311.68417225806814) translate(24 38.6)"/><path d="M387.54 226.68c0 22.1-17.9 40-40 40s-40-17.9-40-40 17.9-40 40-40 40 17.9 40 40z" stroke="#000" stroke-width="2" fill="#fff"/><use xlink:href="#c" transform="matrix(1,0,0,1,312.53734886737567,191.68417225806814) translate(24 38.6)"/><path d="M217.62 317.5l84.45-52.94" stroke="#000" stroke-width="2" fill="none"/><path d="M218.17 318.34l-.7.44-1.4-1.48 1.04-.65z"/><path d="M315 256.45l-9.62 11.5-4.93-7.84z" stroke="#000" stroke-width="2"/><path d="M308.98 210.16l-46.8-20.06" stroke="#000" stroke-width="2" fill="none"/><path d="M310.32 209.65l-.85 1.8-.9-.38.78-1.84z"/><path d="M248.15 184.1l14.94 1.35-3.66 8.52z" stroke="#000" stroke-width="2"/><path d="M165.53 166.7l-.8.02-1.8.1-1.75.2-1.74.26-1.73.33-1.7.4-1.72.5-1.7.54-1.72.64-1.72.72-1.74.82-1.74.9-1.77 1.04-1.8 1.13-1.83 1.26-1.85 1.4-1.9 1.57-1.9 1.73-1.98 1.93-2 2.13-2.06 2.38-2.1 2.66-2.13 2.94-2.17 3.27-2.2 3.63-2.2 4.03-2.22 4.45-2.18 4.9-2.12 5.36-2.03 5.8-1.88 6.25-1.7 6.6-1.46 6.9-1.2 7.08-.9 7.12-.6 7.04-.28 6.83v6.52l.25 6.13.48 5.7.66 5.28.83 4.83.93 4.4 1.02 3.97 1.1 3.62 1.13 3.28 1.2 2.97 1.2 2.7 1.2 2.44 1.23 2.24 1.23 2.04 1.23 1.85 1.23 1.7 1.23 1.56 1.23 1.42 1.23 1.3 1.23 1.22 1.24 1.12 1.25 1.03 1.25.94 1.25.87 1.27.82 1.3.74.13.07" stroke="#000" stroke-width="2" fill="none"/><path d="M166.54 166.67l.03 1-1.04.04-.04-2 1.1-.02z"/><path d="M143.4 345.92l-14.97 1.1 2.2-9z" stroke="#000" stroke-width="2"/><path d="M367.54 366.68c0 22.1-17.9 40-40 40s-40-17.9-40-40 17.9-40 40-40 40 17.9 40 40z" stroke="#000" stroke-width="2" fill="#fff"/><use xlink:href="#d" transform="matrix(1,0,0,1,292.53734886737567,331.68417225806814) translate(24 38.6)"/><path d="M174.8 141.08l-7.36 1.48-7.62 1.87-7 2.03-6.43 2.16-5.96 2.3-5.52 2.38-5.13 2.48-4.8 2.56-4.48 2.65-4.2 2.72-3.93 2.8-3.72 2.87-3.5 2.94-3.28 3.03-3.1 3.1-2.95 3.2-2.77 3.28-2.62 3.38L88 191.8l-2.34 3.6-2.2 3.7-2.04 3.83-1.92 3.96-1.77 4.1-1.64 4.26-1.5 4.43-1.33 4.6-1.18 4.8-1.02 5-.82 5.2-.63 5.44-.4 5.68-.2 5.93.07 6.18.34 6.45.63 6.7.96 6.98 1.3 7.22 1.67 7.45 2.05 7.66 2.46 7.83 2.88 7.96 3.28 8.02 3.7 8.05 4.06 8 4.45 7.88 4.77 7.7 5.07 7.46 3.5 4.8 1.35 1.7 1.42 1.65 1.5 1.6 1.57 1.56 1.67 1.52 1.8 1.48 1.87 1.44 2 1.4 2.16 1.4 2.3 1.33 2.5 1.3 2.7 1.3 2.92 1.23 3.2 1.2 3.5 1.15 3.87 1.1 4.3 1.02 4.8.93 5.4.82 6.15.66 7.05.46 8.16.2 9.57-.17 11.38-.7 13.8-1.4 17.13-2.48 22.08-4.16 15.4-3.58" stroke="#000" stroke-width="2" fill="none"/><path d="M174.93 141.9l-.36-1.8 2.2-.44z"/><path d="M286.6 383.16l-12.83 7.78-2.12-9.03z" stroke="#000" stroke-width="2"/><path d="M854.43 206.68c0 22.1-17.9 40-40 40s-40-17.9-40-40 17.9-40 40-40 40 17.9 40 40z" stroke="#000" stroke-width="2" fill="#fff"/><use xlink:href="#e" transform="matrix(1,0,0,1,779.4256962260097,171.68417225806814) translate(24 38.6)"/><path d="M954.43 286.68c0 22.1-17.9 40-40 40s-40-17.9-40-40 17.9-40 40-40 40 17.9 40 40z" stroke="#000" stroke-width="2" fill="#fff"/><use xlink:href="#f" transform="matrix(1,0,0,1,879.4256962260097,251.68417225806814) translate(24 38.6)"/><path d="M834.43 326.68c0 22.1-17.9 40-40 40s-40-17.9-40-40 17.9-40 40-40 40 17.9 40 40z" stroke="#000" stroke-width="2" fill="#fff"/><use xlink:href="#g" transform="matrix(1,0,0,1,759.4256962260097,291.68417225806814) translate(24 38.6)"/><path d="M850.23 228.5l21.32 17.18" stroke="#000" stroke-width="2" fill="none"/><path d="M850.88 227.73l-1.26 1.56-.7-.58 1.07-1.7z"/><path d="M883.43 255.26l-14-5.34 5.8-7.22z" stroke="#000" stroke-width="2"/><path d="M809.13 248.3l-7.93 20.17" stroke="#000" stroke-width="2" fill="none"/><path d="M809.26 247.36l1.3.08-.5 1.26-1.87-.73.3-.75z"/><path d="M795.6 282.67l.92-14.97 8.63 3.4z" stroke="#000" stroke-width="2"/><path d="M86.28 458.28h240v60h-240z" stroke="#000" stroke-opacity="0" stroke-width="2" fill="#fff" fill-opacity="0"/><use xlink:href="#h" transform="matrix(1,0,0,1,91.28417225806805,463.28417225806805) translate(56.51851851851852 30.333333333333336)"/><use xlink:href="#i" transform="matrix(1,0,0,1,91.28417225806805,463.28417225806805) translate(155.7037037037037 30.333333333333336)"/><path d="M746.28 458.28h240v60h-240z" stroke="#000" stroke-opacity="0" stroke-width="2" fill="#fff" fill-opacity="0"/><use xlink:href="#h" transform="matrix(1,0,0,1,751.2841722580681,463.28417225806805) translate(56.51851851851852 30.333333333333336)"/><use xlink:href="#j" transform="matrix(1,0,0,1,751.2841722580681,463.28417225806805) translate(155.7037037037037 30.333333333333336)"/><path d="M375.6 194.18l4.62-5.43 5.95-6.4 5.98-5.93 6.04-5.5 6.1-5.1 6.2-4.76 6.3-4.45 6.48-4.14 6.64-3.88 6.84-3.63 7.1-3.38 7.4-3.15 7.72-2.93 8.14-2.7 8.62-2.45 9.2-2.2 9.9-1.95 10.74-1.65 11.8-1.3 13.2-.9 15-.38 17.57.28.6.03 19.3 1.13 19.03 1.93 18.72 2.7 18.37 3.4 18 4.15 17.6 4.84 17.2 5.5 16.8 6.18 16.43 6.83 16.04 7.47 15.7 8.12 1.85 1.06" stroke="#8b0000" stroke-width="4" fill="none"/><path d="M377.14 195.44L375.8 197l-.32-.32-2.74-2.25 1.36-1.6z" fill="#8b0000"/><path d="M772.83 183.8l-14.65-3.2 4.67-8z" stroke="#8b0000" stroke-width="4" fill="#8b0000"/><path d="M363.48 390.17l18.18 10.8 20.2 10.9 20.38 9.92 20.44 8.9 20.38 7.9 20.22 6.85 19.95 5.85 19.6 4.87 19.2 3.92 18.7 3 18.2 2.16 17.62 1.34 17.07.58 16.5-.13 15.92-.8 15.35-1.4 14.8-2 14.27-2.52 13.75-3.03 13.27-3.52 12.8-3.98 12.34-4.4 11.93-4.84 11.53-5.25 11.16-5.64 10.8-6.05 10.5-6.45 10.15-6.86 9.87-7.3 9.58-7.72 9.3-8.17 9.07-8.63 8.8-9.15 8.6-9.67 8.33-10.25 7.13-9.56" stroke="#8b0000" stroke-width="4" fill="none"/><path d="M364.55 388.48l-2.04 3.43-1.83-1.08.14-.17 2.03-3.2z" fill="#8b0000"/><path d="M888.46 326.35l-4.12 14.42-7.7-5.18z" stroke="#8b0000" stroke-width="4" fill="#8b0000"/><path d="M406.28 219.88h240v60h-240z" stroke="#000" stroke-opacity="0" stroke-width="2" fill="#fff" fill-opacity="0"/><g><use xlink:href="#k" transform="matrix(1,0,0,1,411.2841722580681,224.88417225806796) translate(47.62962962962962 30.333333333333336)"/><use xlink:href="#l" transform="matrix(1,0,0,1,411.2841722580681,224.88417225806796) translate(139.4074074074074 30.333333333333336)"/></g><defs><path d="M205 0l-28-72H64L36 0H1l101-248h38L239 0h-34zm-38-99l-47-123c-12 45-31 82-46 123h93" id="m"/><path d="M27 0v-27h64v-190l-56 39v-29l58-41h29v221h61V0H27" id="n"/><g id="a"><use transform="matrix(0.05,0,0,0.05,0,0)" xlink:href="#m"/><use transform="matrix(0.05,0,0,0.05,12,0)" xlink:href="#n"/></g><path d="M126-127c33 6 58 20 58 59 0 88-139 92-164 29-3-8-5-16-6-25l32-3c6 27 21 44 54 44 32 0 52-15 52-46 0-38-36-46-79-43v-28c39 1 72-4 72-42 0-27-17-43-46-43-28 0-47 15-49 41l-32-3c6-42 35-63 81-64 48-1 79 21 79 65 0 36-21 52-52 59" id="o"/><g id="b"><use transform="matrix(0.05,0,0,0.05,0,0)" xlink:href="#m"/><use transform="matrix(0.05,0,0,0.05,12,0)" xlink:href="#o"/></g><path d="M101-251c82-7 93 87 43 132L82-64C71-53 59-42 53-27h129V0H18c2-99 128-94 128-182 0-28-16-43-45-43s-46 15-49 41l-32-3c6-41 34-60 81-64" id="p"/><g id="c"><use transform="matrix(0.05,0,0,0.05,0,0)" xlink:href="#m"/><use transform="matrix(0.05,0,0,0.05,12,0)" xlink:href="#p"/></g><path d="M155-56V0h-30v-56H8v-25l114-167h33v167h35v25h-35zm-30-156c-27 46-58 90-88 131h88v-131" id="q"/><g id="d"><use transform="matrix(0.05,0,0,0.05,0,0)" xlink:href="#m"/><use transform="matrix(0.05,0,0,0.05,12,0)" xlink:href="#q"/></g><path d="M160-131c35 5 61 23 61 61C221 17 115-2 30 0v-248c76 3 177-17 177 60 0 33-19 50-47 57zm-97-11c50-1 110 9 110-42 0-47-63-36-110-37v79zm0 115c55-2 124 14 124-45 0-56-70-42-124-44v89" id="r"/><g id="e"><use transform="matrix(0.05,0,0,0.05,0,0)" xlink:href="#r"/><use transform="matrix(0.05,0,0,0.05,12,0)" xlink:href="#n"/></g><g id="f"><use transform="matrix(0.05,0,0,0.05,0,0)" xlink:href="#r"/><use transform="matrix(0.05,0,0,0.05,12,0)" xlink:href="#o"/></g><g id="g"><use transform="matrix(0.05,0,0,0.05,0,0)" xlink:href="#r"/><use transform="matrix(0.05,0,0,0.05,12,0)" xlink:href="#p"/></g><path d="M30-248c118-7 216 8 213 122C240-48 200 0 122 0H30v-248zM63-27c89 8 146-16 146-99s-60-101-146-95v194" id="s"/><path d="M141-36C126-15 110 5 73 4 37 3 15-17 15-53c-1-64 63-63 125-63 3-35-9-54-41-54-24 1-41 7-42 31l-33-3c5-37 33-52 76-52 45 0 72 20 72 64v82c-1 20 7 32 28 27v20c-31 9-61-2-59-35zM48-53c0 20 12 33 32 33 41-3 63-29 60-74-43 2-92-5-92 41" id="t"/><path d="M59-47c-2 24 18 29 38 22v24C64 9 27 4 27-40v-127H5v-23h24l9-43h21v43h35v23H59v120" id="u"/><path d="M135-143c-3-34-86-38-87 0 15 53 115 12 119 90S17 21 10-45l28-5c4 36 97 45 98 0-10-56-113-15-118-90-4-57 82-63 122-42 12 7 21 19 24 35" id="v"/><path d="M100-194c63 0 86 42 84 106H49c0 40 14 67 53 68 26 1 43-12 49-29l28 8c-11 28-37 45-77 45C44 4 14-33 15-96c1-61 26-98 85-98zm52 81c6-60-76-77-97-28-3 7-6 17-6 28h103" id="w"/><g id="h"><use transform="matrix(0.07407407407407408,0,0,0.07407407407407408,0,0)" xlink:href="#s"/><use transform="matrix(0.07407407407407408,0,0,0.07407407407407408,19.185185185185187,0)" xlink:href="#t"/><use transform="matrix(0.07407407407407408,0,0,0.07407407407407408,34,0)" xlink:href="#u"/><use transform="matrix(0.07407407407407408,0,0,0.07407407407407408,41.407407407407405,0)" xlink:href="#t"/><use transform="matrix(0.07407407407407408,0,0,0.07407407407407408,56.22222222222222,0)" xlink:href="#v"/><use transform="matrix(0.07407407407407408,0,0,0.07407407407407408,69.55555555555556,0)" xlink:href="#w"/><use transform="matrix(0.07407407407407408,0,0,0.07407407407407408,84.37037037037038,0)" xlink:href="#u"/></g><use transform="matrix(0.07407407407407408,0,0,0.07407407407407408,0,0)" xlink:href="#m" id="i"/><use transform="matrix(0.07407407407407408,0,0,0.07407407407407408,0,0)" xlink:href="#r" id="j"/><path fill="#8b0000" d="M30 0v-248h33v221h125V0H30" id="x"/><path fill="#8b0000" d="M24-231v-30h32v30H24zM24 0v-190h32V0H24" id="y"/><path fill="#8b0000" d="M117-194c89-4 53 116 60 194h-32v-121c0-31-8-49-39-48C34-167 62-67 57 0H25l-1-190h30c1 10-1 24 2 32 11-22 29-35 61-36" id="z"/><path fill="#8b0000" d="M143 0L79-87 56-68V0H24v-261h32v163l83-92h37l-77 82L181 0h-38" id="A"/><path fill="#8b0000" d="M135-143c-3-34-86-38-87 0 15 53 115 12 119 90S17 21 10-45l28-5c4 36 97 45 98 0-10-56-113-15-118-90-4-57 82-63 122-42 12 7 21 19 24 35" id="B"/><path fill="#8b0000" d="M100-194c63 0 86 42 84 106H49c0 40 14 67 53 68 26 1 43-12 49-29l28 8c-11 28-37 45-77 45C44 4 14-33 15-96c1-61 26-98 85-98zm52 81c6-60-76-77-97-28-3 7-6 17-6 28h103" id="C"/><path fill="#8b0000" d="M59-47c-2 24 18 29 38 22v24C64 9 27 4 27-40v-127H5v-23h24l9-43h21v43h35v23H59v120" id="D"/><g id="k"><use transform="matrix(0.07407407407407408,0,0,0.07407407407407408,0,0)" xlink:href="#x"/><use transform="matrix(0.07407407407407408,0,0,0.07407407407407408,14.814814814814817,0)" xlink:href="#y"/><use transform="matrix(0.07407407407407408,0,0,0.07407407407407408,20.666666666666668,0)" xlink:href="#z"/><use transform="matrix(0.07407407407407408,0,0,0.07407407407407408,35.48148148148149,0)" xlink:href="#A"/><use transform="matrix(0.07407407407407408,0,0,0.07407407407407408,48.814814814814824,0)" xlink:href="#B"/><use transform="matrix(0.07407407407407408,0,0,0.07407407407407408,62.14814814814816,0)" xlink:href="#C"/><use transform="matrix(0.07407407407407408,0,0,0.07407407407407408,76.96296296296298,0)" xlink:href="#D"/></g><path fill="#8b0000" d="M205 0l-28-72H64L36 0H1l101-248h38L239 0h-34zm-38-99l-47-123c-12 45-31 82-46 123h93" id="E"/><path fill="#8b0000" d="M0 4l72-265h28L28 4H0" id="F"/><path fill="#8b0000" d="M160-131c35 5 61 23 61 61C221 17 115-2 30 0v-248c76 3 177-17 177 60 0 33-19 50-47 57zm-97-11c50-1 110 9 110-42 0-47-63-36-110-37v79zm0 115c55-2 124 14 124-45 0-56-70-42-124-44v89" id="G"/><g id="l"><use transform="matrix(0.07407407407407408,0,0,0.07407407407407408,0,0)" xlink:href="#E"/><use transform="matrix(0.07407407407407408,0,0,0.07407407407407408,17.77777777777778,0)" xlink:href="#F"/><use transform="matrix(0.07407407407407408,0,0,0.07407407407407408,25.185185185185187,0)" xlink:href="#G"/></g></defs></g></svg>