<svg xmlns="http://www.w3.org/2000/svg" xmlns:xlink="http://www.w3.org/1999/xlink" xmlns:lucid="lucid" width="580" height="440"><g transform="translate(9.834815756035567 9.834815756035574)" lucid:page-tab-id="kW8rOsYie8c~"><path d="M0 0h594.16v420.33H0z" fill="#fff"/><path d="M138.17 10.17c17.67 0 32 17.9 32 40s-14.33 40-32 40h-96c-17.68 0-32-17.9-32-40s14.32-40 32-40z" stroke="#000" stroke-width="2" fill="#fff"/><use xlink:href="#a" transform="matrix(1,0,0,1,15.165184243964433,15.165184243964426) translate(44.05 38.6)"/><use xlink:href="#b" transform="matrix(1,0,0,1,15.165184243964433,15.165184243964426) translate(93.95 38.6)"/><path d="M518.17 10.17c17.67 0 32 17.9 32 40s-14.33 40-32 40h-96c-17.68 0-32-17.9-32-40s14.32-40 32-40z" stroke="#000" stroke-width="2" fill="#fff"/><use xlink:href="#c" transform="matrix(1,0,0,1,395.1651842439644,15.165184243964426) translate(15.599999999999994 38.6)"/><use xlink:href="#d" transform="matrix(1,0,0,1,395.1651842439644,15.165184243964426) translate(72.5 38.6)"/><use xlink:href="#e" transform="matrix(1,0,0,1,395.1651842439644,15.165184243964426) translate(122.4 38.6)"/><path d="M240.7 51.17h-68.53v-2h68.52zm146.65 0h-67.7v-2h67.7z"/><path d="M172.2 51.17h-1.1l.07-1-.04-1h1.06zM389.16 50.17L370.5 61.2l-1.02-1.7 15.76-9.33-15.76-9.32 1-1.73z"/><use xlink:href="#f" transform="matrix(1,0,0,1,240.6901842439644,39.36518424396442) translate(0 14.4)"/><path d="M138.17 170.17c17.67 0 32 17.9 32 40s-14.33 40-32 40h-96c-17.68 0-32-17.9-32-40s14.32-40 32-40z" stroke="#000" stroke-width="2" fill="#fff"/><use xlink:href="#g" transform="matrix(1,0,0,1,15.165184243964433,175.16518424396443) translate(15.574999999999996 38.6)"/><use xlink:href="#b" transform="matrix(1,0,0,1,15.165184243964433,175.16518424396443) translate(122.42500000000001 38.6)"/><path d="M518.17 170.17c17.67 0 32 17.9 32 40s-14.33 40-32 40h-96c-17.68 0-32-17.9-32-40s14.32-40 32-40z" stroke="#000" stroke-width="2" fill="#fff"/><use xlink:href="#h" transform="matrix(1,0,0,1,395.1651842440184,175.16518424396443) translate(49.05 27.799999999999997)"/><use xlink:href="#i" transform="matrix(1,0,0,1,395.1651842440184,175.16518424396443) translate(15.574999999999996 49.4)"/><use xlink:href="#e" transform="matrix(1,0,0,1,395.1651842440184,175.16518424396443) translate(122.42500000000001 49.4)"/><path d="M205.24 211.17h-33.07v-2h33.07zm182.1 0H355.1v-2h32.25z"/><path d="M172.2 211.17h-1.1l.07-1-.04-1h1.06zM389.16 210.17L370.5 221.2l-1.02-1.7 15.76-9.33-15.76-9.32 1-1.73z"/><use xlink:href="#j" transform="matrix(1,0,0,1,205.2401842439914,188.56518424396444) translate(59.455000000000005 14.4)"/><use xlink:href="#k" transform="matrix(1,0,0,1,205.2401842439914,188.56518424396444) translate(0.0049999999999954525 36)"/><path d="M138.17 330.17c17.67 0 32 17.9 32 40s-14.33 40-32 40h-96c-17.68 0-32-17.9-32-40s14.32-40 32-40z" stroke="#000" stroke-width="2" fill="#fff"/><use xlink:href="#l" transform="matrix(1,0,0,1,15.165184243964433,335.1651842439644) translate(15.049999999999997 38.6)"/><use xlink:href="#m" transform="matrix(1,0,0,1,15.165184243964433,335.1651842439644) translate(57.95 38.6)"/><use xlink:href="#b" transform="matrix(1,0,0,1,15.165184243964433,335.1651842439644) translate(122.95 38.6)"/><path d="M518.17 330.17c17.67 0 32 17.9 32 40s-14.33 40-32 40h-96c-17.68 0-32-17.9-32-40s14.32-40 32-40z" stroke="#000" stroke-width="2" fill="#fff"/><use xlink:href="#l" transform="matrix(1,0,0,1,395.1651842440184,335.1651842439644) translate(15.049999999999997 38.6)"/><use xlink:href="#m" transform="matrix(1,0,0,1,395.1651842440184,335.1651842439644) translate(57.95 38.6)"/><use xlink:href="#e" transform="matrix(1,0,0,1,395.1651842440184,335.1651842439644) translate(122.95 38.6)"/><path d="M204.23 371.17h-32.06v-2h32.06zm183.12 0h-58.27v-2h58.27z"/><path d="M172.2 371.17h-1.1l.07-1-.04-1h1.06zM389.16 370.17L370.5 381.2l-1.02-1.7 15.76-9.33-15.76-9.32 1-1.73z"/><g><use xlink:href="#n" transform="matrix(1,0,0,1,204.228536992368,348.5651842439644) translate(47.955000000000005 14.4)"/><use xlink:href="#o" transform="matrix(1,0,0,1,204.228536992368,348.5651842439644) translate(0.005000000000002558 36)"/></g><path d="M291.17 348.57h-2v-1.36h2zm0-9.17h-2v-3.9h2zm0-11.72h-2v-3.9h2zm0-11.72h-2v-3.9h2zm0-11.7h-2v-3.92h2zm0-11.73h-2v-3.9h2zm0-11.72h-2v-3.9h2zm0-11.7h-2v-3.92h2zm0-11.73h-2v-3.9h2zm0-11.72h-2v-3.9h2zm0-11.7h-2v-1.97h2z"/><path/><path d="M301.2 248.84l-1.7 1-9.33-15.75-9.32 15.75-1.73-1 10.1-17.08h1.9zM291.17 188.57h-2v-1.36h2zm0-9.17h-2v-3.9h2zm0-11.72h-2v-3.9h2zm0-11.72h-2v-3.9h2zm0-11.7h-2v-3.92h2zm0-11.73h-2v-3.9h2zm0-11.72h-2v-3.9h2zm0-11.7h-2v-3.92h2zm0-11.73h-2v-3.9h2zm0-11.72h-2v-3.9h2zm0-11.7h-2v-1.97h2z"/><path/><path d="M301.2 88.84l-1.7 1-9.33-15.75-9.32 15.75-1.73-1 11.05-18.68z"/><defs><path d="M127-220V0H93v-220H8v-28h204v28h-85" id="p"/><path d="M106-169C34-169 62-67 57 0H25v-261h32l-1 103c12-21 28-36 61-36 89 0 53 116 60 194h-32v-121c2-32-8-49-39-48" id="q"/><path d="M24-231v-30h32v30H24zM24 0v-190h32V0H24" id="r"/><path d="M117-194c89-4 53 116 60 194h-32v-121c0-31-8-49-39-48C34-167 62-67 57 0H25l-1-190h30c1 10-1 24 2 32 11-22 29-35 61-36" id="s"/><path d="M177-190C167-65 218 103 67 71c-23-6-38-20-44-43l32-5c15 47 100 32 89-28v-30C133-14 115 1 83 1 29 1 15-40 15-95c0-56 16-97 71-98 29-1 48 16 59 35 1-10 0-23 2-32h30zM94-22c36 0 50-32 50-73 0-42-14-75-50-75-39 0-46 34-46 75s6 73 46 73" id="t"/><g id="a"><use transform="matrix(0.05,0,0,0.05,0,0)" xlink:href="#p"/><use transform="matrix(0.05,0,0,0.05,10.950000000000001,0)" xlink:href="#q"/><use transform="matrix(0.05,0,0,0.05,20.950000000000003,0)" xlink:href="#r"/><use transform="matrix(0.05,0,0,0.05,24.900000000000002,0)" xlink:href="#s"/><use transform="matrix(0.05,0,0,0.05,34.900000000000006,0)" xlink:href="#t"/></g><path d="M195 0l-74-108L45 0H8l94-129-87-119h37l69 98 67-98h37l-84 118L233 0h-38" id="u"/><use transform="matrix(0.05,0,0,0.05,0,0)" xlink:href="#u" id="b"/><path d="M160-131c35 5 61 23 61 61C221 17 115-2 30 0v-248c76 3 177-17 177 60 0 33-19 50-47 57zm-97-11c50-1 110 9 110-42 0-47-63-36-110-37v79zm0 115c55-2 124 14 124-45 0-56-70-42-124-44v89" id="v"/><path d="M100-194c63 0 86 42 84 106H49c0 40 14 67 53 68 26 1 43-12 49-29l28 8c-11 28-37 45-77 45C44 4 14-33 15-96c1-61 26-98 85-98zm52 81c6-60-76-77-97-28-3 7-6 17-6 28h103" id="w"/><path d="M114-163C36-179 61-72 57 0H25l-1-190h30c1 12-1 29 2 39 6-27 23-49 58-41v29" id="x"/><g id="c"><use transform="matrix(0.05,0,0,0.05,0,0)" xlink:href="#v"/><use transform="matrix(0.05,0,0,0.05,12,0)" xlink:href="#r"/><use transform="matrix(0.05,0,0,0.05,15.949999999999998,0)" xlink:href="#t"/><use transform="matrix(0.05,0,0,0.05,25.950000000000003,0)" xlink:href="#t"/><use transform="matrix(0.05,0,0,0.05,35.95,0)" xlink:href="#w"/><use transform="matrix(0.05,0,0,0.05,45.95,0)" xlink:href="#x"/></g><g id="d"><use transform="matrix(0.05,0,0,0.05,0,0)" xlink:href="#p"/><use transform="matrix(0.05,0,0,0.05,10.950000000000001,0)" xlink:href="#q"/><use transform="matrix(0.05,0,0,0.05,20.950000000000003,0)" xlink:href="#r"/><use transform="matrix(0.05,0,0,0.05,24.900000000000002,0)" xlink:href="#s"/><use transform="matrix(0.05,0,0,0.05,34.900000000000006,0)" xlink:href="#t"/></g><path d="M137-103V0h-34v-103L8-248h37l75 118 75-118h37" id="y"/><use transform="matrix(0.05,0,0,0.05,0,0)" xlink:href="#y" id="e"/><path d="M85-194c31 0 48 13 60 33l-1-100h32l1 261h-30c-2-10 0-23-3-31C134-8 116 4 85 4 32 4 16-35 15-94c0-66 23-100 70-100zm9 24c-40 0-46 34-46 75 0 40 6 74 45 74 42 0 51-32 51-76 0-42-9-74-50-73" id="z"/><path d="M96-169c-40 0-48 33-48 73s9 75 48 75c24 0 41-14 43-38l32 2c-6 37-31 61-74 61-59 0-76-41-82-99-10-93 101-131 147-64 4 7 5 14 7 22l-32 3c-4-21-16-35-41-35" id="A"/><path d="M59-47c-2 24 18 29 38 22v24C64 9 27 4 27-40v-127H5v-23h24l9-43h21v43h35v23H59v120" id="B"/><path d="M33-154v-36h34v36H33zM33 0v-36h34V0H33" id="C"/><path d="M115-194c55 1 70 41 70 98S169 2 115 4C84 4 66-9 55-30l1 105H24l-1-265h31l2 30c10-21 28-34 59-34zm-8 174c40 0 45-34 45-75s-6-73-45-74c-42 0-51 32-51 76 0 43 10 73 51 73" id="D"/><path d="M141-36C126-15 110 5 73 4 37 3 15-17 15-53c-1-64 63-63 125-63 3-35-9-54-41-54-24 1-41 7-42 31l-33-3c5-37 33-52 76-52 45 0 72 20 72 64v82c-1 20 7 32 28 27v20c-31 9-61-2-59-35zM48-53c0 20 12 33 32 33 41-3 63-29 60-74-43 2-92-5-92 41" id="E"/><path d="M140-251c81 0 123 46 123 126C263-46 219 4 140 4 59 4 17-45 17-125s42-126 123-126zm0 227c63 0 89-41 89-101s-29-99-89-99c-61 0-89 39-89 99S79-25 140-24" id="F"/><path d="M101-234c-31-9-42 10-38 44h38v23H63V0H32v-167H5v-23h27c-7-52 17-82 69-68v24" id="G"/><g id="f"><use transform="matrix(0.05,0,0,0.05,0,0)" xlink:href="#z"/><use transform="matrix(0.05,0,0,0.05,10,0)" xlink:href="#A"/><use transform="matrix(0.05,0,0,0.05,19,0)" xlink:href="#B"/><use transform="matrix(0.05,0,0,0.05,24,0)" xlink:href="#C"/><use transform="matrix(0.05,0,0,0.05,29,0)" xlink:href="#D"/><use transform="matrix(0.05,0,0,0.05,39,0)" xlink:href="#E"/><use transform="matrix(0.05,0,0,0.05,49,0)" xlink:href="#x"/><use transform="matrix(0.05,0,0,0.05,54.95,0)" xlink:href="#B"/><use transform="matrix(0.05,0,0,0.05,59.95,0)" xlink:href="#F"/><use transform="matrix(0.05,0,0,0.05,73.95,0)" xlink:href="#G"/></g><path d="M135-143c-3-34-86-38-87 0 15 53 115 12 119 90S17 21 10-45l28-5c4 36 97 45 98 0-10-56-113-15-118-90-4-57 82-63 122-42 12 7 21 19 24 35" id="H"/><path d="M100-194c62-1 85 37 85 99 1 63-27 99-86 99S16-35 15-95c0-66 28-99 85-99zM99-20c44 1 53-31 53-75 0-43-8-75-51-75s-53 32-53 75 10 74 51 75" id="I"/><g id="g"><use transform="matrix(0.05,0,0,0.05,0,0)" xlink:href="#F"/><use transform="matrix(0.05,0,0,0.05,14,0)" xlink:href="#x"/><use transform="matrix(0.05,0,0,0.05,19.95,0)" xlink:href="#t"/><use transform="matrix(0.05,0,0,0.05,29.950000000000003,0)" xlink:href="#E"/><use transform="matrix(0.05,0,0,0.05,39.95,0)" xlink:href="#s"/><use transform="matrix(0.05,0,0,0.05,49.95,0)" xlink:href="#r"/><use transform="matrix(0.05,0,0,0.05,53.900000000000006,0)" xlink:href="#H"/><use transform="matrix(0.05,0,0,0.05,62.900000000000006,0)" xlink:href="#E"/><use transform="matrix(0.05,0,0,0.05,72.9,0)" xlink:href="#B"/><use transform="matrix(0.05,0,0,0.05,77.9,0)" xlink:href="#r"/><use transform="matrix(0.05,0,0,0.05,81.85000000000001,0)" xlink:href="#I"/><use transform="matrix(0.05,0,0,0.05,91.85000000000001,0)" xlink:href="#s"/></g><g id="h"><use transform="matrix(0.05,0,0,0.05,0,0)" xlink:href="#v"/><use transform="matrix(0.05,0,0,0.05,12,0)" xlink:href="#r"/><use transform="matrix(0.05,0,0,0.05,15.949999999999998,0)" xlink:href="#t"/><use transform="matrix(0.05,0,0,0.05,25.950000000000003,0)" xlink:href="#t"/><use transform="matrix(0.05,0,0,0.05,35.95,0)" xlink:href="#w"/><use transform="matrix(0.05,0,0,0.05,45.95,0)" xlink:href="#x"/></g><g id="i"><use transform="matrix(0.05,0,0,0.05,0,0)" xlink:href="#F"/><use transform="matrix(0.05,0,0,0.05,14,0)" xlink:href="#x"/><use transform="matrix(0.05,0,0,0.05,19.95,0)" xlink:href="#t"/><use transform="matrix(0.05,0,0,0.05,29.950000000000003,0)" xlink:href="#E"/><use transform="matrix(0.05,0,0,0.05,39.95,0)" xlink:href="#s"/><use transform="matrix(0.05,0,0,0.05,49.95,0)" xlink:href="#r"/><use transform="matrix(0.05,0,0,0.05,53.900000000000006,0)" xlink:href="#H"/><use transform="matrix(0.05,0,0,0.05,62.900000000000006,0)" xlink:href="#E"/><use transform="matrix(0.05,0,0,0.05,72.9,0)" xlink:href="#B"/><use transform="matrix(0.05,0,0,0.05,77.9,0)" xlink:href="#r"/><use transform="matrix(0.05,0,0,0.05,81.85000000000001,0)" xlink:href="#I"/><use transform="matrix(0.05,0,0,0.05,91.85000000000001,0)" xlink:href="#s"/></g><g id="j"><use transform="matrix(0.05,0,0,0.05,0,0)" xlink:href="#I"/><use transform="matrix(0.05,0,0,0.05,10,0)" xlink:href="#x"/><use transform="matrix(0.05,0,0,0.05,15.949999999999998,0)" xlink:href="#t"/><use transform="matrix(0.05,0,0,0.05,25.950000000000003,0)" xlink:href="#C"/></g><path d="M84 4C-5 8 30-112 23-190h32v120c0 31 7 50 39 49 72-2 45-101 50-169h31l1 190h-30c-1-10 1-25-2-33-11 22-28 36-60 37" id="J"/><path d="M115-194c53 0 69 39 70 98 0 66-23 100-70 100C84 3 66-7 56-30L54 0H23l1-261h32v101c10-23 28-34 59-34zm-8 174c40 0 45-34 45-75 0-40-5-75-45-74-42 0-51 32-51 76 0 43 10 73 51 73" id="K"/><path d="M9 0v-24l116-142H16v-24h144v24L44-24h123V0H9" id="L"/><g id="k"><use transform="matrix(0.05,0,0,0.05,0,0)" xlink:href="#H"/><use transform="matrix(0.05,0,0,0.05,9,0)" xlink:href="#J"/><use transform="matrix(0.05,0,0,0.05,19,0)" xlink:href="#K"/><use transform="matrix(0.05,0,0,0.05,29,0)" xlink:href="#F"/><use transform="matrix(0.05,0,0,0.05,43,0)" xlink:href="#x"/><use transform="matrix(0.05,0,0,0.05,48.95,0)" xlink:href="#t"/><use transform="matrix(0.05,0,0,0.05,58.95,0)" xlink:href="#E"/><use transform="matrix(0.05,0,0,0.05,68.95,0)" xlink:href="#s"/><use transform="matrix(0.05,0,0,0.05,78.95,0)" xlink:href="#r"/><use transform="matrix(0.05,0,0,0.05,82.9,0)" xlink:href="#L"/><use transform="matrix(0.05,0,0,0.05,91.9,0)" xlink:href="#E"/><use transform="matrix(0.05,0,0,0.05,101.9,0)" xlink:href="#B"/><use transform="matrix(0.05,0,0,0.05,106.9,0)" xlink:href="#r"/><use transform="matrix(0.05,0,0,0.05,110.85000000000001,0)" xlink:href="#I"/><use transform="matrix(0.05,0,0,0.05,120.85000000000001,0)" xlink:href="#s"/><use transform="matrix(0.05,0,0,0.05,130.85000000000002,0)" xlink:href="#F"/><use transform="matrix(0.05,0,0,0.05,144.85000000000002,0)" xlink:href="#G"/></g><path d="M212-179c-10-28-35-45-73-45-59 0-87 40-87 99 0 60 29 101 89 101 43 0 62-24 78-52l27 14C228-24 195 4 139 4 59 4 22-46 18-125c-6-104 99-153 187-111 19 9 31 26 39 46" id="M"/><path d="M233-177c-1 41-23 64-60 70L243 0h-38l-65-103H63V0H30v-248c88 3 205-21 203 71zM63-129c60-2 137 13 137-47 0-61-80-42-137-45v92" id="N"/><path d="M185-189c-5-48-123-54-124 2 14 75 158 14 163 119 3 78-121 87-175 55-17-10-28-26-33-46l33-7c5 56 141 63 141-1 0-78-155-14-162-118-5-82 145-84 179-34 5 7 8 16 11 25" id="O"/><g id="l"><use transform="matrix(0.05,0,0,0.05,0,0)" xlink:href="#M"/><use transform="matrix(0.05,0,0,0.05,12.950000000000001,0)" xlink:href="#N"/><use transform="matrix(0.05,0,0,0.05,25.900000000000002,0)" xlink:href="#O"/></g><path d="M205 0l-28-72H64L36 0H1l101-248h38L239 0h-34zm-38-99l-47-123c-12 45-31 82-46 123h93" id="P"/><path d="M179-190L93 31C79 59 56 82 12 73V49c39 6 53-20 64-50L1-190h34L92-34l54-156h33" id="Q"/><g id="m"><use transform="matrix(0.05,0,0,0.05,0,0)" xlink:href="#P"/><use transform="matrix(0.05,0,0,0.05,12,0)" xlink:href="#t"/><use transform="matrix(0.05,0,0,0.05,22,0)" xlink:href="#w"/><use transform="matrix(0.05,0,0,0.05,32,0)" xlink:href="#s"/><use transform="matrix(0.05,0,0,0.05,42,0)" xlink:href="#A"/><use transform="matrix(0.05,0,0,0.05,51,0)" xlink:href="#Q"/></g><g id="n"><use transform="matrix(0.05,0,0,0.05,0,0)" xlink:href="#A"/><use transform="matrix(0.05,0,0,0.05,9,0)" xlink:href="#x"/><use transform="matrix(0.05,0,0,0.05,14.949999999999998,0)" xlink:href="#H"/><use transform="matrix(0.05,0,0,0.05,23.95,0)" xlink:href="#C"/></g><g id="o"><use transform="matrix(0.05,0,0,0.05,0,0)" xlink:href="#H"/><use transform="matrix(0.05,0,0,0.05,9,0)" xlink:href="#J"/><use transform="matrix(0.05,0,0,0.05,19,0)" xlink:href="#D"/><use transform="matrix(0.05,0,0,0.05,29,0)" xlink:href="#w"/><use transform="matrix(0.05,0,0,0.05,39,0)" xlink:href="#x"/><use transform="matrix(0.05,0,0,0.05,44.95,0)" xlink:href="#r"/><use transform="matrix(0.05,0,0,0.05,48.900000000000006,0)" xlink:href="#I"/><use transform="matrix(0.05,0,0,0.05,58.900000000000006,0)" xlink:href="#x"/><use transform="matrix(0.05,0,0,0.05,64.85000000000001,0)" xlink:href="#P"/><use transform="matrix(0.05,0,0,0.05,76.85000000000001,0)" xlink:href="#t"/><use transform="matrix(0.05,0,0,0.05,86.85000000000001,0)" xlink:href="#w"/><use transform="matrix(0.05,0,0,0.05,96.85000000000001,0)" xlink:href="#s"/><use transform="matrix(0.05,0,0,0.05,106.85000000000001,0)" xlink:href="#A"/><use transform="matrix(0.05,0,0,0.05,115.85000000000001,0)" xlink:href="#Q"/></g></defs></g></svg>