<svg xmlns="http://www.w3.org/2000/svg" xmlns:xlink="http://www.w3.org/1999/xlink" xmlns:lucid="lucid" width="795.51" height="181.72"><g transform="translate(6.616377990411692 6.616377990411692)" lucid:page-tab-id="a~QvM9K5QIwx"><path d="M0 0h782.27v553.4H0z" fill="#fff"/><path d="M107.24 140.93c0 7.82-21 14.17-46.93 14.17-25.9 0-46.92-6.35-46.92-14.17V27.56c0-7.83 21-14.18 46.93-14.18s46.94 6.35 46.94 14.18z" stroke="#000" stroke-width="2" fill="#fff"/><path d="M107.24 27.56c0 7.82-21 14.17-46.93 14.17-25.9 0-46.92-6.35-46.92-14.17" stroke="#000" stroke-width="2" fill="none"/><use xlink:href="#a" transform="matrix(1,0,0,1,18.383622009588308,46.72678755797472) translate(15.549999999999997 55.6)"/><path d="M327.8 140.93c0 7.82-21.02 14.17-46.94 14.17-25.92 0-46.93-6.35-46.93-14.17V27.56c0-7.83 21-14.18 46.93-14.18 25.92 0 46.93 6.35 46.93 14.18z" stroke="#000" stroke-width="2" fill="#fff"/><path d="M327.8 27.56c0 7.82-21.02 14.17-46.94 14.17-25.92 0-46.93-6.35-46.93-14.17" stroke="#000" stroke-width="2" fill="none"/><use xlink:href="#b" transform="matrix(1,0,0,1,238.9327564510725,46.72678755797476) translate(0.07499999999999574 55.6)"/><path d="M217.52 140.93c0 7.82-21 14.17-46.93 14.17s-46.94-6.35-46.94-14.17V27.56c0-7.83 21-14.18 46.93-14.18 25.9 0 46.92 6.35 46.92 14.18z" stroke="#000" stroke-width="2" fill="#fff"/><path d="M217.52 27.56c0 7.82-21 14.17-46.93 14.17s-46.94-6.35-46.94-14.17" stroke="#000" stroke-width="2" fill="none"/><use xlink:href="#c" transform="matrix(1,0,0,1,128.65818923033038,46.72678755797473) translate(9.049999999999997 55.6)"/><path d="M438.07 140.93c0 7.82-21.02 14.17-46.93 14.17-25.92 0-46.93-6.35-46.93-14.17V27.56c0-7.83 21.02-14.18 46.94-14.18 25.9 0 46.93 6.35 46.93 14.18z" stroke="#000" stroke-width="2" fill="#fff"/><path d="M438.07 27.56c0 7.82-21.02 14.17-46.93 14.17-25.92 0-46.93-6.35-46.93-14.17" stroke="#000" stroke-width="2" fill="none"/><use xlink:href="#d" transform="matrix(1,0,0,1,349.20732367181466,46.72678755797476) translate(23.049999999999997 44.8)"/><use xlink:href="#e" transform="matrix(1,0,0,1,349.20732367181466,46.72678755797476) translate(-0.45000000000000284 66.4)"/><path d="M548.34 140.93c0 7.82-21 14.17-46.93 14.17-25.9 0-46.92-6.35-46.92-14.17V27.56c0-7.83 21-14.18 46.93-14.18s46.94 6.35 46.94 14.18z" stroke="#000" stroke-width="2" fill="#fff"/><path d="M548.34 27.56c0 7.82-21 14.17-46.93 14.17-25.9 0-46.92-6.35-46.92-14.17" stroke="#000" stroke-width="2" fill="none"/><use xlink:href="#f" transform="matrix(1,0,0,1,459.48189089255675,46.726787557974774) translate(22.525 55.6)"/><path d="M658.6 140.93c0 7.82-21 14.17-46.9 14.17-25.93 0-46.94-6.35-46.94-14.17V27.56c0-7.83 21-14.18 46.93-14.18 25.9 0 46.9 6.35 46.9 14.18z" stroke="#000" stroke-width="2" fill="#fff"/><path d="M658.6 27.56c0 7.82-21 14.17-46.9 14.17-25.93 0-46.94-6.35-46.94-14.17" stroke="#000" stroke-width="2" fill="none"/><use xlink:href="#g" transform="matrix(1,0,0,1,569.7564581132988,46.7267875579747) translate(17.525 55.6)"/><path d="M768.9 140.93c0 7.82-21.02 14.17-46.94 14.17-25.92 0-46.93-6.35-46.93-14.17V27.56c0-7.83 21-14.18 46.93-14.18 25.92 0 46.93 6.35 46.93 14.18z" stroke="#000" stroke-width="2" fill="#fff"/><path d="M768.9 27.56c0 7.82-21.02 14.17-46.94 14.17-25.92 0-46.93-6.35-46.93-14.17" stroke="#000" stroke-width="2" fill="none"/><use xlink:href="#h" transform="matrix(1,0,0,1,680.0310253340409,46.726787557974774) translate(23.049999999999997 34)"/><use xlink:href="#i" transform="matrix(1,0,0,1,680.0310253340409,46.726787557974774) translate(10.049999999999997 55.6)"/><use xlink:href="#j" transform="matrix(1,0,0,1,680.0310253340409,46.726787557974774) translate(17 77.2)"/><defs><path d="M205 0l-28-72H64L36 0H1l101-248h38L239 0h-34zm-38-99l-47-123c-12 45-31 82-46 123h93" id="k"/><path d="M143 4C61 4 22-44 18-125c-5-107 100-154 193-111 17 8 29 25 37 43l-32 9c-13-25-37-40-76-40-61 0-88 39-88 99 0 61 29 100 91 101 35 0 62-11 79-27v-45h-74v-28h105v86C228-13 192 4 143 4" id="l"/><path d="M33 0v-248h34V0H33" id="m"/><path d="M63-220v92h138v28H63V0H30v-248h175v28H63" id="n"/><path d="M127-220V0H93v-220H8v-28h204v28h-85" id="o"/><g id="a"><use transform="matrix(0.05,0,0,0.05,0,0)" xlink:href="#k"/><use transform="matrix(0.05,0,0,0.05,12,0)" xlink:href="#l"/><use transform="matrix(0.05,0,0,0.05,26,0)" xlink:href="#m"/><use transform="matrix(0.05,0,0,0.05,31,0)" xlink:href="#n"/><use transform="matrix(0.05,0,0,0.05,41.95,0)" xlink:href="#o"/></g><path d="M212-179c-10-28-35-45-73-45-59 0-87 40-87 99 0 60 29 101 89 101 43 0 62-24 78-52l27 14C228-24 195 4 139 4 59 4 22-46 18-125c-6-104 99-153 187-111 19 9 31 26 39 46" id="p"/><path d="M140-251c81 0 123 46 123 126C263-46 219 4 140 4 59 4 17-45 17-125s42-126 123-126zm0 227c63 0 89-41 89-101s-29-99-89-99c-61 0-89 39-89 99S79-25 140-24" id="q"/><path d="M16-82v-28h88v28H16" id="r"/><g id="b"><use transform="matrix(0.05,0,0,0.05,0,0)" xlink:href="#p"/><use transform="matrix(0.05,0,0,0.05,12.950000000000001,0)" xlink:href="#q"/><use transform="matrix(0.05,0,0,0.05,26.950000000000003,0)" xlink:href="#n"/><use transform="matrix(0.05,0,0,0.05,37.900000000000006,0)" xlink:href="#q"/><use transform="matrix(0.05,0,0,0.05,51.900000000000006,0)" xlink:href="#l"/><use transform="matrix(0.05,0,0,0.05,65.9,0)" xlink:href="#r"/><use transform="matrix(0.05,0,0,0.05,71.85000000000001,0)" xlink:href="#k"/></g><g id="c"><use transform="matrix(0.05,0,0,0.05,0,0)" xlink:href="#p"/><use transform="matrix(0.05,0,0,0.05,12.950000000000001,0)" xlink:href="#q"/><use transform="matrix(0.05,0,0,0.05,26.950000000000003,0)" xlink:href="#n"/><use transform="matrix(0.05,0,0,0.05,37.900000000000006,0)" xlink:href="#q"/><use transform="matrix(0.05,0,0,0.05,51.900000000000006,0)" xlink:href="#l"/></g><path d="M233-177c-1 41-23 64-60 70L243 0h-38l-65-103H63V0H30v-248c88 3 205-21 203 71zM63-129c60-2 137 13 137-47 0-61-80-42-137-45v92" id="s"/><path d="M185-189c-5-48-123-54-124 2 14 75 158 14 163 119 3 78-121 87-175 55-17-10-28-26-33-46l33-7c5 56 141 63 141-1 0-78-155-14-162-118-5-82 145-84 179-34 5 7 8 16 11 25" id="t"/><g id="d"><use transform="matrix(0.05,0,0,0.05,0,0)" xlink:href="#p"/><use transform="matrix(0.05,0,0,0.05,12.950000000000001,0)" xlink:href="#s"/><use transform="matrix(0.05,0,0,0.05,25.900000000000002,0)" xlink:href="#t"/></g><path d="M106-169C34-169 62-67 57 0H25v-261h32l-1 103c12-21 28-36 61-36 89 0 53 116 60 194h-32v-121c2-32-8-49-39-48" id="u"/><path d="M100-194c63 0 86 42 84 106H49c0 40 14 67 53 68 26 1 43-12 49-29l28 8c-11 28-37 45-77 45C44 4 14-33 15-96c1-61 26-98 85-98zm52 81c6-60-76-77-97-28-3 7-6 17-6 28h103" id="v"/><path d="M135-143c-3-34-86-38-87 0 15 53 115 12 119 90S17 21 10-45l28-5c4 36 97 45 98 0-10-56-113-15-118-90-4-57 82-63 122-42 12 7 21 19 24 35" id="w"/><path d="M141-36C126-15 110 5 73 4 37 3 15-17 15-53c-1-64 63-63 125-63 3-35-9-54-41-54-24 1-41 7-42 31l-33-3c5-37 33-52 76-52 45 0 72 20 72 64v82c-1 20 7 32 28 27v20c-31 9-61-2-59-35zM48-53c0 20 12 33 32 33 41-3 63-29 60-74-43 2-92-5-92 41" id="x"/><path d="M84 4C-5 8 30-112 23-190h32v120c0 31 7 50 39 49 72-2 45-101 50-169h31l1 190h-30c-1-10 1-25-2-33-11 22-28 36-60 37" id="y"/><path d="M114-163C36-179 61-72 57 0H25l-1-190h30c1 12-1 29 2 39 6-27 23-49 58-41v29" id="z"/><g id="e"><use transform="matrix(0.05,0,0,0.05,0,0)" xlink:href="#o"/><use transform="matrix(0.05,0,0,0.05,10.950000000000001,0)" xlink:href="#u"/><use transform="matrix(0.05,0,0,0.05,20.950000000000003,0)" xlink:href="#v"/><use transform="matrix(0.05,0,0,0.05,30.950000000000003,0)" xlink:href="#w"/><use transform="matrix(0.05,0,0,0.05,39.95,0)" xlink:href="#x"/><use transform="matrix(0.05,0,0,0.05,49.95,0)" xlink:href="#y"/><use transform="matrix(0.05,0,0,0.05,59.95,0)" xlink:href="#z"/><use transform="matrix(0.05,0,0,0.05,65.9,0)" xlink:href="#y"/><use transform="matrix(0.05,0,0,0.05,75.9,0)" xlink:href="#w"/></g><path d="M30-248c87 1 191-15 191 75 0 78-77 80-158 76V0H30v-248zm33 125c57 0 124 11 124-50 0-59-68-47-124-48v98" id="A"/><g id="f"><use transform="matrix(0.05,0,0,0.05,0,0)" xlink:href="#l"/><use transform="matrix(0.05,0,0,0.05,14,0)" xlink:href="#A"/><use transform="matrix(0.05,0,0,0.05,26,0)" xlink:href="#p"/></g><path d="M30 0v-248h33v221h125V0H30" id="B"/><g id="g"><use transform="matrix(0.05,0,0,0.05,0,0)" xlink:href="#B"/><use transform="matrix(0.05,0,0,0.05,10,0)" xlink:href="#l"/><use transform="matrix(0.05,0,0,0.05,24,0)" xlink:href="#A"/><use transform="matrix(0.05,0,0,0.05,36,0)" xlink:href="#p"/></g><path d="M30-248c118-7 216 8 213 122C240-48 200 0 122 0H30v-248zM63-27c89 8 146-16 146-99s-60-101-146-95v194" id="C"/><g id="h"><use transform="matrix(0.05,0,0,0.05,0,0)" xlink:href="#s"/><use transform="matrix(0.05,0,0,0.05,12.950000000000001,0)" xlink:href="#C"/><use transform="matrix(0.05,0,0,0.05,25.900000000000002,0)" xlink:href="#k"/></g><path d="M24 0v-261h32V0H24" id="D"/><g id="i"><use transform="matrix(0.05,0,0,0.05,0,0)" xlink:href="#p"/><use transform="matrix(0.05,0,0,0.05,12.950000000000001,0)" xlink:href="#D"/><use transform="matrix(0.05,0,0,0.05,16.900000000000002,0)" xlink:href="#x"/><use transform="matrix(0.05,0,0,0.05,26.900000000000002,0)" xlink:href="#w"/><use transform="matrix(0.05,0,0,0.05,35.900000000000006,0)" xlink:href="#w"/><use transform="matrix(0.05,0,0,0.05,44.900000000000006,0)" xlink:href="#v"/><use transform="matrix(0.05,0,0,0.05,54.900000000000006,0)" xlink:href="#w"/></g><path d="M137 0h-34L2-248h35l83 218 83-218h36" id="E"/><path d="M100-194c62-1 85 37 85 99 1 63-27 99-86 99S16-35 15-95c0-66 28-99 85-99zM99-20c44 1 53-31 53-75 0-43-8-75-51-75s-53 32-53 75 10 74 51 75" id="F"/><path d="M96-169c-40 0-48 33-48 73s9 75 48 75c24 0 41-14 43-38l32 2c-6 37-31 61-74 61-59 0-76-41-82-99-10-93 101-131 147-64 4 7 5 14 7 22l-32 3c-4-21-16-35-41-35" id="G"/><path d="M115-194c53 0 69 39 70 98 0 66-23 100-70 100C84 3 66-7 56-30L54 0H23l1-261h32v101c10-23 28-34 59-34zm-8 174c40 0 45-34 45-75 0-40-5-75-45-74-42 0-51 32-51 76 0 43 10 73 51 73" id="H"/><g id="j"><use transform="matrix(0.05,0,0,0.05,0,0)" xlink:href="#E"/><use transform="matrix(0.05,0,0,0.05,11,0)" xlink:href="#F"/><use transform="matrix(0.05,0,0,0.05,21,0)" xlink:href="#G"/><use transform="matrix(0.05,0,0,0.05,30,0)" xlink:href="#x"/><use transform="matrix(0.05,0,0,0.05,40,0)" xlink:href="#H"/></g></defs></g></svg>