<svg xmlns="http://www.w3.org/2000/svg" xmlns:xlink="http://www.w3.org/1999/xlink" xmlns:lucid="lucid" width="647.76" height="623.32"><g transform="translate(5.176217846456623 5.176217846456623)" lucid:page-tab-id="Te8rS0MtOtua"><path d="M0 0h866.45v612.96H0z" fill="#fff"/><path d="M366.42 178.26c0 10.03-21.36 18.16-47.7 18.16-26.37 0-47.73-8.13-47.73-18.16V32.98c0-10.03 21.35-18.16 47.7-18.16 26.36 0 47.72 8.13 47.72 18.16z" stroke="#8b0000" stroke-width="2" fill="#fff"/><path d="M366.42 32.98c0 10.03-21.36 18.16-47.7 18.16-26.37 0-47.73-8.13-47.73-18.16" stroke="#8b0000" stroke-width="2" fill="none"/><use xlink:href="#a" transform="matrix(1,0,0,1,275.9902099954262,56.14378215354336) translate(14.524999999999999 60.8)"/><use xlink:href="#b" transform="matrix(1,0,0,1,275.9902099954262,56.14378215354336) translate(21 82.4)"/><use xlink:href="#c" transform="matrix(1,0,0,1,275.9902099954262,56.14378215354336) translate(55 82.4)"/><path d="M622.6 379.98c0 10.03-37.18 18.16-83.04 18.16-45.85 0-83.02-8.13-83.02-18.16V234.7c0-10.03 37.17-18.16 83.02-18.16 45.86 0 83.03 8.13 83.03 18.16z" stroke="#000" stroke-width="2" fill="#fff"/><path d="M622.6 234.7c0 10.03-37.18 18.16-83.04 18.16-45.85 0-83.02-8.13-83.02-18.16" stroke="#000" stroke-width="2" fill="none"/><use xlink:href="#d" transform="matrix(1,0,0,1,461.53960989547534,257.85960989547533) translate(39.025 71.60000000000001)"/><use xlink:href="#e" transform="matrix(1,0,0,1,461.53960989547534,257.85960989547533) translate(105.975 71.60000000000001)"/><path d="M180.87 379.98c0 10.03-37.17 18.16-83.02 18.16-45.85 0-83.03-8.13-83.03-18.16V234.7c0-10.03 37.18-18.16 83.03-18.16s83.02 8.13 83.02 18.16z" stroke="#000" stroke-width="2" fill="#fff"/><path d="M180.87 234.7c0 10.03-37.17 18.16-83.02 18.16-45.85 0-83.03-8.13-83.03-18.16" stroke="#000" stroke-width="2" fill="none"/><use xlink:href="#d" transform="matrix(1,0,0,1,19.823782153543377,257.85960989547533) translate(39.025 71.60000000000001)"/><use xlink:href="#f" transform="matrix(1,0,0,1,19.823782153543377,257.85960989547533) translate(105.975 71.60000000000001)"/><path d="M366.42 579.98c0 10.03-21.36 18.16-47.7 18.16-26.37 0-47.73-8.13-47.73-18.16V434.7c0-10.03 21.35-18.16 47.7-18.16 26.36 0 47.72 8.13 47.72 18.16z" stroke="#8b0000" stroke-width="2" fill="#fff"/><path d="M366.42 434.7c0 10.03-21.36 18.16-47.7 18.16-26.37 0-47.73-8.13-47.73-18.16" stroke="#8b0000" stroke-width="2" fill="none"/><use xlink:href="#a" transform="matrix(1,0,0,1,275.9902099954262,457.8596098954753) translate(14.524999999999999 60.8)"/><use xlink:href="#b" transform="matrix(1,0,0,1,275.9902099954262,457.8596098954753) translate(21 82.4)"/><use xlink:href="#g" transform="matrix(1,0,0,1,275.9902099954262,457.8596098954753) translate(55 82.4)"/><path d="M97.87 400.14l.07 3.46.27 4.23.43 4.05.57 3.87.7 3.72.85 3.6.97 3.46 1.1 3.37 1.22 3.27 1.34 3.2 1.47 3.14 1.6 3.08 1.76 3.03 1.9 3 2.05 2.94 2.22 2.93 2.4 2.9 2.6 2.9 2.83 2.87 3.06 2.87 3.33 2.88 3.6 2.87 3.97 2.88 4.33 2.87 4.75 2.88 5.22 2.87 5.77 2.86 6.37 2.84 7.06 2.8 7.84 2.72 8.7 2.62 9.66 2.48 10.72 2.27 11.83 2 12.98 1.63 14.03 1.18 14.92.62 6.67.07" stroke="#000" stroke-width="2" fill="none"/><path d="M97.83 399.14h1.02l.02 1-2 .05-.02-1.1zM270 506.34v2h-1.05l.03-2z"/><path d="M368.42 507.32l14.23-.3 14.5-.9 13.5-1.42 12.4-1.83 11.28-2.15 10.18-2.38 9.2-2.56 8.24-2.68 7.43-2.76 6.7-2.82 6.06-2.84 5.5-2.87 4.97-2.86 4.53-2.88 4.14-2.87 3.8-2.9 3.46-2.86 3.2-2.87 2.92-2.87 2.7-2.9 2.5-2.88 2.32-2.9 2.13-2.95 1.98-2.97 1.82-3 1.67-3.05 1.54-3.1 1.42-3.17 1.28-3.24 1.16-3.32 1.03-3.42.9-3.52.77-3.66.02-.08" stroke="#000" stroke-width="2" fill="none"/><path d="M368.47 508.32l-1.05.02v-2l1-.02z"/><path d="M539.27 402.36L542.6 417l-9.24-.85z" stroke="#000" stroke-width="2"/><path d="M97.87 214.54l.07-3.52.27-4.3.44-4.1.58-3.94.73-3.8.85-3.64 1-3.53 1.1-3.43 1.25-3.34 1.37-3.27 1.5-3.2 1.65-3.14 1.78-3.1 1.94-3.04 2.1-3.02 2.26-3 2.46-2.96 2.66-2.96 2.88-2.94 3.13-2.94 3.4-2.93 3.7-2.94 4.04-2.94 4.42-2.94 4.85-2.93 5.33-2.93 5.85-2.9 6.47-2.9 7.14-2.8 7.9-2.76 8.74-2.63 9.67-2.48 10.68-2.27 11.7-1.98 12.74-1.6 13.67-1.15 14.4-.6 6.4-.07" stroke="#000" stroke-width="2" fill="none"/><path d="M98.87 214.53l-.02 1.04-1-.03h-1l.02-1.05zM270 106.62h-1.02l-.03-2H270z"/><path d="M368.42 105.64l13.68.3 14.08.87 13.22 1.4 12.22 1.8 11.18 2.13 10.16 2.38 9.2 2.58 8.32 2.7 7.5 2.8 6.8 2.84 6.15 2.9 5.58 2.9 5.1 2.94 4.6 2.93 4.24 2.93 3.87 2.93 3.56 2.94 3.26 2.93 3 2.94 2.77 2.95 2.55 2.96 2.36 2.98 2.2 3 2 3.04 1.87 3.07 1.7 3.12 1.6 3.16 1.42 3.23 1.3 3.3 1.18 3.38 1.05 3.48.93 3.6.8 3.7.05.38" stroke="#000" stroke-width="2" fill="none"/><path d="M368.47 104.65l-.04 2-1-.03v-2z"/><path d="M539.27 212.32l-5.9-13.8 9.24-.83z" stroke="#000" stroke-width="2"/><path d="M456.54 14.82h95.43V40h-95.43z" stroke="#000" stroke-opacity="0" stroke-width="2" fill="#fff" fill-opacity="0"/><use xlink:href="#h" transform="matrix(1,0,0,1,461.539609895437,19.823782153544016) translate(4.524999999999999 14.4)"/><use xlink:href="#i" transform="matrix(1,0,0,1,461.539609895437,19.823782153544016) translate(69.475 14.4)"/><path d="M491.85 540h95.43v25.18h-95.43z" stroke="#000" stroke-opacity="0" stroke-width="2" fill="#fff" fill-opacity="0"/><use xlink:href="#h" transform="matrix(1,0,0,1,496.84812386639214,545) translate(4.524999999999999 14.4)"/><use xlink:href="#j" transform="matrix(1,0,0,1,496.84812386639214,545) translate(69.475 14.4)"/><path d="M368.33 68.22l87.3-40.4" fill="none"/><path d="M368.33 68.22l1.82-.84m7.27-3.36l3.64-1.7m7.28-3.35l3.63-1.7m7.28-3.35l3.64-1.7m7.26-3.35l3.64-1.68m7.27-3.38l3.64-1.68m7.3-3.37l3.63-1.68m7.27-3.38l3.64-1.68m7.27-3.37l1.83-.84" stroke="#8b0000" stroke-width="2" fill="none"/><path d="M368.77 69.12l-1.35.62v-2.2l.5-.24zM456.54 28.5l-.5.25-.85-1.82 1.34-.62z" fill="#8b0000"/><path d="M368.42 546.5l122.43 6.04" fill="none"/><path d="M368.42 546.5l2.04.1m8.16.4l4.08.2m8.17.4l4.08.2m8.16.4l4.1.2m8.15.4l4.08.2m8.16.4l4.08.22m8.16.4l4.08.2m8.16.4l4.08.2m8.16.4l4.08.2m8.17.4l4.08.2m8.16.42l2.05.1" stroke="#8b0000" stroke-width="2" fill="none"/><path d="M368.5 545.5l-.1 2-.98-.06v-2zM491.85 551.6v2l-1.08-.06.1-2z" fill="#8b0000"/><defs><path fill="#8b0000" d="M30 0v-248h33v221h125V0H30" id="k"/><path fill="#8b0000" d="M24-231v-30h32v30H24zM24 0v-190h32V0H24" id="l"/><path fill="#8b0000" d="M117-194c89-4 53 116 60 194h-32v-121c0-31-8-49-39-48C34-167 62-67 57 0H25l-1-190h30c1 10-1 24 2 32 11-22 29-35 61-36" id="m"/><path fill="#8b0000" d="M143 0L79-87 56-68V0H24v-261h32v163l83-92h37l-77 82L181 0h-38" id="n"/><path fill="#8b0000" d="M135-143c-3-34-86-38-87 0 15 53 115 12 119 90S17 21 10-45l28-5c4 36 97 45 98 0-10-56-113-15-118-90-4-57 82-63 122-42 12 7 21 19 24 35" id="o"/><path fill="#8b0000" d="M100-194c63 0 86 42 84 106H49c0 40 14 67 53 68 26 1 43-12 49-29l28 8c-11 28-37 45-77 45C44 4 14-33 15-96c1-61 26-98 85-98zm52 81c6-60-76-77-97-28-3 7-6 17-6 28h103" id="p"/><path fill="#8b0000" d="M59-47c-2 24 18 29 38 22v24C64 9 27 4 27-40v-127H5v-23h24l9-43h21v43h35v23H59v120" id="q"/><g id="a"><use transform="matrix(0.05,0,0,0.05,0,0)" xlink:href="#k"/><use transform="matrix(0.05,0,0,0.05,10,0)" xlink:href="#l"/><use transform="matrix(0.05,0,0,0.05,13.949999999999998,0)" xlink:href="#m"/><use transform="matrix(0.05,0,0,0.05,23.95,0)" xlink:href="#n"/><use transform="matrix(0.05,0,0,0.05,32.95,0)" xlink:href="#o"/><use transform="matrix(0.05,0,0,0.05,41.95,0)" xlink:href="#p"/><use transform="matrix(0.05,0,0,0.05,51.95,0)" xlink:href="#q"/></g><path fill="#8b0000" d="M205 0l-28-72H64L36 0H1l101-248h38L239 0h-34zm-38-99l-47-123c-12 45-31 82-46 123h93" id="r"/><path fill="#8b0000" d="M0 4l72-265h28L28 4H0" id="s"/><path fill="#8b0000" d="M160-131c35 5 61 23 61 61C221 17 115-2 30 0v-248c76 3 177-17 177 60 0 33-19 50-47 57zm-97-11c50-1 110 9 110-42 0-47-63-36-110-37v79zm0 115c55-2 124 14 124-45 0-56-70-42-124-44v89" id="t"/><g id="b"><use transform="matrix(0.05,0,0,0.05,0,0)" xlink:href="#r"/><use transform="matrix(0.05,0,0,0.05,12,0)" xlink:href="#s"/><use transform="matrix(0.05,0,0,0.05,17,0)" xlink:href="#t"/></g><path fill="#8b0000" d="M27 0v-27h64v-190l-56 39v-29l58-41h29v221h61V0H27" id="u"/><use transform="matrix(0.05,0,0,0.05,0,0)" xlink:href="#u" id="c"/><path d="M30-248c118-7 216 8 213 122C240-48 200 0 122 0H30v-248zM63-27c89 8 146-16 146-99s-60-101-146-95v194" id="v"/><path d="M141-36C126-15 110 5 73 4 37 3 15-17 15-53c-1-64 63-63 125-63 3-35-9-54-41-54-24 1-41 7-42 31l-33-3c5-37 33-52 76-52 45 0 72 20 72 64v82c-1 20 7 32 28 27v20c-31 9-61-2-59-35zM48-53c0 20 12 33 32 33 41-3 63-29 60-74-43 2-92-5-92 41" id="w"/><path d="M59-47c-2 24 18 29 38 22v24C64 9 27 4 27-40v-127H5v-23h24l9-43h21v43h35v23H59v120" id="x"/><path d="M135-143c-3-34-86-38-87 0 15 53 115 12 119 90S17 21 10-45l28-5c4 36 97 45 98 0-10-56-113-15-118-90-4-57 82-63 122-42 12 7 21 19 24 35" id="y"/><path d="M100-194c63 0 86 42 84 106H49c0 40 14 67 53 68 26 1 43-12 49-29l28 8c-11 28-37 45-77 45C44 4 14-33 15-96c1-61 26-98 85-98zm52 81c6-60-76-77-97-28-3 7-6 17-6 28h103" id="z"/><g id="d"><use transform="matrix(0.05,0,0,0.05,0,0)" xlink:href="#v"/><use transform="matrix(0.05,0,0,0.05,12.950000000000001,0)" xlink:href="#w"/><use transform="matrix(0.05,0,0,0.05,22.950000000000003,0)" xlink:href="#x"/><use transform="matrix(0.05,0,0,0.05,27.950000000000003,0)" xlink:href="#w"/><use transform="matrix(0.05,0,0,0.05,37.95,0)" xlink:href="#y"/><use transform="matrix(0.05,0,0,0.05,46.95,0)" xlink:href="#z"/><use transform="matrix(0.05,0,0,0.05,56.95,0)" xlink:href="#x"/></g><path d="M160-131c35 5 61 23 61 61C221 17 115-2 30 0v-248c76 3 177-17 177 60 0 33-19 50-47 57zm-97-11c50-1 110 9 110-42 0-47-63-36-110-37v79zm0 115c55-2 124 14 124-45 0-56-70-42-124-44v89" id="A"/><use transform="matrix(0.05,0,0,0.05,0,0)" xlink:href="#A" id="e"/><path d="M205 0l-28-72H64L36 0H1l101-248h38L239 0h-34zm-38-99l-47-123c-12 45-31 82-46 123h93" id="B"/><use transform="matrix(0.05,0,0,0.05,0,0)" xlink:href="#B" id="f"/><path fill="#8b0000" d="M101-251c82-7 93 87 43 132L82-64C71-53 59-42 53-27h129V0H18c2-99 128-94 128-182 0-28-16-43-45-43s-46 15-49 41l-32-3c6-41 34-60 81-64" id="C"/><use transform="matrix(0.05,0,0,0.05,0,0)" xlink:href="#C" id="g"/><path fill="#8b0000" d="M240 0l2-218c-23 76-54 145-80 218h-23L58-218 59 0H30v-248h44l77 211c21-75 51-140 76-211h43V0h-30" id="D"/><path fill="#8b0000" d="M106-169C34-169 62-67 57 0H25v-261h32l-1 103c12-21 28-36 61-36 89 0 53 116 60 194h-32v-121c2-32-8-49-39-48" id="E"/><path fill="#8b0000" d="M100-194c62-1 85 37 85 99 1 63-27 99-86 99S16-35 15-95c0-66 28-99 85-99zM99-20c44 1 53-31 53-75 0-43-8-75-51-75s-53 32-53 75 10 74 51 75" id="F"/><path fill="#8b0000" d="M85-194c31 0 48 13 60 33l-1-100h32l1 261h-30c-2-10 0-23-3-31C134-8 116 4 85 4 32 4 16-35 15-94c0-66 23-100 70-100zm9 24c-40 0-46 34-46 75 0 40 6 74 45 74 42 0 51-32 51-76 0-42-9-74-50-73" id="G"/><g id="h"><use transform="matrix(0.05,0,0,0.05,0,0)" xlink:href="#D"/><use transform="matrix(0.05,0,0,0.05,14.950000000000001,0)" xlink:href="#p"/><use transform="matrix(0.05,0,0,0.05,24.950000000000003,0)" xlink:href="#q"/><use transform="matrix(0.05,0,0,0.05,29.950000000000003,0)" xlink:href="#E"/><use transform="matrix(0.05,0,0,0.05,39.95,0)" xlink:href="#F"/><use transform="matrix(0.05,0,0,0.05,49.95,0)" xlink:href="#G"/></g><path fill="#8b0000" d="M195 0l-74-108L45 0H8l94-129-87-119h37l69 98 67-98h37l-84 118L233 0h-38" id="H"/><use transform="matrix(0.05,0,0,0.05,0,0)" xlink:href="#H" id="i"/><path fill="#8b0000" d="M137-103V0h-34v-103L8-248h37l75 118 75-118h37" id="I"/><use transform="matrix(0.05,0,0,0.05,0,0)" xlink:href="#I" id="j"/></defs></g></svg>