<svg xmlns="http://www.w3.org/2000/svg" xmlns:xlink="http://www.w3.org/1999/xlink" xmlns:lucid="lucid" width="1120" height="724.44"><g transform="translate(0.8680248007085822 1.7979182289264237)" lucid:page-tab-id="0_0"><path d="M0 0h1118.26v791.1H0z" fill="#fff"/><path d="M919.13 382.64c0 176.73-165.65 320-370 320-204.34 0-370-143.27-370-320s165.66-320 370-320c204.35 0 370 143.27 370 320z" fill="#e5e5e5"/><path d="M918.92 392.7l-.04 1.74-.14 2.26m-.5 8.02l-.1 1.44-.26 2.57m-.84 8l-.12 1.06-.43 2.9m-1.18 7.96l-.1.7-.62 3.25m-1.5 7.9l-.08.37-.83 3.56m-1.85 7.82l-.02.07-1.06 3.8m-2.17 7.75l-1.24 3.82m-2.5 7.63l-1.4 3.77m-2.8 7.53l-1.57 3.7m-3.13 7.4l-1.7 3.65m-3.44 7.28l-.05.12-1.8 3.44m-3.73 7.13l-.28.53-1.7 2.96m-4.03 6.96l-.64 1.1-1.47 2.32m-4.3 6.8l-1.17 1.82-1.05 1.52m-4.58 6.6l-1.88 2.7-.44.6m-4.86 6.4l-2.43 3.2m-5.1 6.2l-2.56 3.1m-5.3 6.03l-2.7 2.98m-5.5 5.86l-2.8 2.87m-5.7 5.7l-2.92 2.76m-5.86 5.5l-.46.43-2.57 2.2m-6.08 5.26l-2.5 2.16-.56.44m-6.32 5l-3.15 2.5m-6.44 4.8l-3.27 2.35m-6.56 4.65l-3.35 2.22m-6.7 4.45l-.73.5-2.7 1.6m-6.87 4.18l-3.44 2.08m-7.05 3.9l-3.52 1.93m-7.1 3.75l-3.6 1.8m-7.2 3.56l-.63.32-3.04 1.36m-7.35 3.26l-3.66 1.64m-7.46 3l-3.74 1.48m-7.5 2.87l-3.8 1.32m-7.6 2.64l-2.3.8-1.5.45m-7.7 2.32l-3.86 1.17m-7.75 2.13l-3.9 1m-7.78 2l-.54.14-3.37.73m-7.87 1.67l-3.93.84m-7.9 1.4l-3.97.68m-7.94 1.32l-3.98.5m-7.98 1l-4 .5m-8 .73l-4 .34m-8 .63l-4.03.17m-8.03.34l-4.02.16m-8.04.12l-2 .02-2.02-.04m-8.04-.17l-4-.1m-8.05-.32l-4-.24m-8.03-.5l-2.07-.13-1.94-.2m-8-.85l-4-.42m-7.97-1l-3.98-.6m-7.95-1.17l-1.4-.22-2.56-.5m-7.9-1.5l-3.95-.75m-7.86-1.72l-3.9-.9m-7.84-1.84h-.05l-3.82-1.08m-7.75-2.16l-3.87-1.08m-7.65-2.44l-3.82-1.24m-7.62-2.57l-3.76-1.4m-7.53-2.8l-2.52-.95-1.22-.5m-7.4-3.13l-3.72-1.56m-7.33-3.3l-3.62-1.7m-7.27-3.45l-3.55-1.86m-7.12-3.72l-3.12-1.63-.43-.26m-6.96-4.02l-3.47-2m-6.86-4.2l-3.4-2.15m-6.76-4.35l-3.3-2.3m-6.6-4.58l-1.82-1.27-1.43-1.1m-6.4-4.85l-3.2-2.43m-6.23-5.1l-3.1-2.55m-6.1-5.25l-2.97-2.7m-5.94-5.4l-2.86-2.82m-5.75-5.63l-.64-.62-2.14-2.28m-5.5-5.86l-2-2.12-.72-.85m-5.26-6.1l-2.62-3.03m-5.02-6.3l-2.5-3.14m-4.8-6.45l-2.35-3.24m-4.57-6.62l-2.22-3.34m-4.32-6.78l-2.08-3.44m-4.06-6.94l-1.94-3.52m-3.8-7.1l-1.77-3.6m-3.5-7.23l-1.65-3.68m-3.2-7.37l-1.48-3.74m-2.9-7.5l-1.32-3.8m-2.57-7.6l-1.16-3.85m-2.25-7.72l-1-3.9m-1.9-7.8l-.84-3.93m-1.57-7.9l-.67-3.95m-1.23-7.94l-.5-3.98m-.88-8l-.34-4m-.52-8.02l-.17-4.02m-.22-8.03l-.02-2v-.02l.04-2m.17-8.04l.04-1.77.14-2.25m.5-8.03l.1-1.43.27-2.57m.83-8l.1-1.07.44-2.9m1.17-7.96l.1-.7.63-3.26m1.5-7.9l.07-.35.84-3.55m1.83-7.83l.03-.06 1.06-3.8m2.16-7.75l1.24-3.8m2.5-7.66l1.4-3.76m2.8-7.53l1.57-3.7m3.12-7.42l1.7-3.63m3.43-7.28l.06-.12 1.8-3.44m3.7-7.13l.3-.54 1.7-2.96m4.02-6.96l.64-1.1 1.47-2.33m4.3-6.78l1.17-1.84 1.06-1.5m4.6-6.62l1.86-2.7.44-.57m4.87-6.4l2.43-3.2m5.1-6.2l2.56-3.1m5.3-6.05l2.7-2.98m5.5-5.86l2.8-2.88m5.7-5.7l2.92-2.74m5.86-5.5l.46-.43 2.57-2.23m6.1-5.25l2.5-2.16.55-.44m6.3-5l3.15-2.5m6.45-4.8l3.25-2.36m6.57-4.63l3.35-2.23m6.7-4.44l.72-.5 2.7-1.62m6.87-4.16l3.44-2.08m7.03-3.9l3.53-1.93m7.12-3.75l3.6-1.78m7.2-3.58l.6-.3 3.06-1.36m7.35-3.27l3.68-1.63m7.45-3l3.74-1.48m7.5-2.87l3.8-1.32m7.6-2.64l2.3-.82 1.52-.45m7.7-2.33l3.84-1.16m7.75-2.14l3.9-1m7.78-2l.56-.13 3.38-.72m7.86-1.67l3.93-.84m7.9-1.42l3.98-.67m7.94-1.3l4-.52m7.96-1l4-.5m8-.72l4-.33m8.02-.62l4-.17m8.05-.34l4-.17m8.05-.1l2-.03h.02l2 .04m8.04.17l4.02.08m8.03.33l4 .26m8.03.5l2.07.13 1.94.2m8 .84l4 .4m7.97 1.03l3.97.6m7.97 1.16l1.4.2 2.56.5m7.9 1.5l3.94.75m7.85 1.72l3.92.9m7.82 1.85h.05l3.84 1.08m7.74 2.16l3.87 1.08m7.66 2.44l3.83 1.24m7.62 2.57l3.77 1.4m7.54 2.8l2.52.93 1.22.5m7.4 3.13l3.72 1.55m7.33 3.32l3.64 1.7m7.25 3.45l3.56 1.86m7.14 3.73l3.1 1.63.45.24m6.95 4.02l3.48 2m6.86 4.2l3.4 2.15m6.75 4.36l3.3 2.3m6.6 4.58l1.84 1.27 1.4 1.1m6.42 4.85l3.2 2.43m6.23 5.1l3.1 2.55m6.08 5.25l3 2.7m5.92 5.4l2.87 2.82m5.75 5.62l.63.63 2.15 2.28m5.5 5.86l1.98 2.1.74.85m5.25 6.1l2.63 3.03m5 6.28l2.5 3.15m4.8 6.46l2.37 3.26m4.56 6.6l2.23 3.36m4.33 6.78l2.08 3.44m4.07 6.94l1.93 3.52m3.8 7.1l1.78 3.6m3.5 7.23l1.63 3.66m3.22 7.37l1.48 3.74m2.9 7.5l1.3 3.8m2.6 7.6l1.15 3.86m2.24 7.72l1 3.9m1.9 7.8l.84 3.93m1.56 7.88l.67 3.97m1.23 7.94l.5 4m.87 7.98l.34 4m.53 8.03l.17 4m.2 8.05l.03 2-.04 2.02" stroke="#000" stroke-width="2" fill="none"/><use xlink:href="#a" transform="matrix(1,0,0,1,184.1319751992915,67.63851687410357) translate(322.025 14.4)"/><path d="M559.13 250.64c0 6.63-53.72 12-120 12-66.27 0-120-5.37-120-12v-96c0-6.63 53.73-12 120-12 66.28 0 120 5.37 120 12z" stroke="#000" stroke-width="2" fill="#fff"/><path d="M559.13 154.64c0 6.63-53.72 12-120 12-66.27 0-120-5.37-120-12" stroke="#000" stroke-width="2" fill="none"/><use xlink:href="#b" transform="matrix(1,0,0,1,324.13197519929145,171.63851687410363) translate(7.574999999999989 46.6)"/><use xlink:href="#c" transform="matrix(1,0,0,1,324.13197519929145,171.63851687410363) translate(50.57499999999999 46.6)"/><use xlink:href="#d" transform="matrix(1,0,0,1,324.13197519929145,171.63851687410363) translate(128.475 46.6)"/><use xlink:href="#e" transform="matrix(1,0,0,1,324.13197519929145,171.63851687410363) translate(210.425 46.6)"/><path d="M559.13 610.64c0 6.63-53.72 12-120 12-66.27 0-120-5.37-120-12v-96c0-6.63 53.73-12 120-12 66.28 0 120 5.37 120 12z" stroke="#000" stroke-width="2" fill="#fff"/><path d="M559.13 514.64c0 6.63-53.72 12-120 12-66.27 0-120-5.37-120-12" stroke="#000" stroke-width="2" fill="none"/><use xlink:href="#b" transform="matrix(1,0,0,1,324.13197519929145,531.6385168741036) translate(7.574999999999989 46.6)"/><use xlink:href="#c" transform="matrix(1,0,0,1,324.13197519929145,531.6385168741036) translate(50.57499999999999 46.6)"/><use xlink:href="#d" transform="matrix(1,0,0,1,324.13197519929145,531.6385168741036) translate(128.475 46.6)"/><use xlink:href="#f" transform="matrix(1,0,0,1,324.13197519929145,531.6385168741036) translate(210.425 46.6)"/><path d="M479.13 414.64c0 4.42-17.9 8-40 8s-40-3.58-40-8v-64c0-4.42 17.9-8 40-8s40 3.58 40 8z" stroke="#000" stroke-width="2" fill="#fff"/><path d="M479.13 350.64c0 4.42-17.9 8-40 8s-40-3.58-40-8" stroke="#000" stroke-width="2" fill="none"/><use xlink:href="#g" transform="matrix(1,0,0,1,404.13197519929145,363.6385168741036) translate(6.524999999999999 19.799999999999997)"/><use xlink:href="#h" transform="matrix(1,0,0,1,404.13197519929145,363.6385168741036) translate(29 41.4)"/><path d="M440.13 340.64h-2v-17.2h2zm0-38.8h-2v-19.7h2z"/><path d="M440.13 341.7l-1-.06-1 .03v-1.06h2zM443.77 281.14h-9.27l4.63-14.27z"/><path d="M445.14 282.14h-12.02l6-18.5zm-9.27-2h6.52l-3.27-10.03z"/><use xlink:href="#i" transform="matrix(1,0,0,1,421.18197519929146,301.83798329130946) translate(0 14.4)"/><path d="M440.13 483.14h-2v-9.7h2zm0-31.3h-2v-27.2h2z"/><path d="M439.12 423.64l1-.04v1.06h-2v-1.08zM439.13 498.4l-4.63-14.26h9.27z"/><path d="M439.13 501.64l-6-18.5h12zm-3.26-16.5l3.26 10.03 3.26-10.03z"/><use xlink:href="#i" transform="matrix(1,0,0,1,421.18197519929146,451.83878311857615) translate(0 14.4)"/><path d="M879.13 390.64c0 6.63-53.72 12-120 12-66.27 0-120-5.37-120-12v-96c0-6.63 53.73-12 120-12 66.28 0 120 5.37 120 12z" stroke="#000" stroke-width="2" fill="#fff"/><path d="M879.13 294.64c0 6.63-53.72 12-120 12-66.27 0-120-5.37-120-12" stroke="#000" stroke-width="2" fill="none"/><use xlink:href="#b" transform="matrix(1,0,0,1,644.1319751992914,311.6385168741036) translate(5.599999999999994 46.6)"/><use xlink:href="#j" transform="matrix(1,0,0,1,644.1319751992914,311.6385168741036) translate(48.599999999999994 46.6)"/><use xlink:href="#d" transform="matrix(1,0,0,1,644.1319751992914,311.6385168741036) translate(131.5 46.6)"/><use xlink:href="#k" transform="matrix(1,0,0,1,644.1319751992914,311.6385168741036) translate(213.45000000000002 46.6)"/><path d="M799.13 594.64c0 4.42-17.9 8-40 8s-40-3.58-40-8v-64c0-4.42 17.9-8 40-8s40 3.58 40 8z" stroke="#000" stroke-width="2" fill="#fff"/><path d="M799.13 530.64c0 4.42-17.9 8-40 8s-40-3.58-40-8" stroke="#000" stroke-width="2" fill="none"/><use xlink:href="#g" transform="matrix(1,0,0,1,724.1319751992914,543.6385168741036) translate(6.524999999999999 19.799999999999997)"/><use xlink:href="#l" transform="matrix(1,0,0,1,724.1319751992914,543.6385168741036) translate(29 41.4)"/><path d="M760.13 520.64h-2v-47.2h2zm0-68.8h-2v-29.7h2z"/><path d="M760.13 521.7l-1-.06-1 .03v-1.06h2zM763.77 421.14h-9.27l4.63-14.27z"/><path d="M765.14 422.14h-12.02l6-18.5zm-9.27-2h6.52l-3.27-10.03z"/><use xlink:href="#i" transform="matrix(1,0,0,1,741.1819751992914,451.838250629631) translate(0 14.4)"/><path d="M630.52 563.64h-51.9v-2h51.9zm86.6 0h-50.7v-2h50.7z"/><path d="M718.13 563.64h-1.02v-2h1.03zM577.63 567.27l-14.26-4.63 14.26-4.64z"/><path d="M578.63 568.65l-18.5-6 18.5-6.02zm-12.03-6l10.03 3.25v-6.52z"/><use xlink:href="#i" transform="matrix(1,0,0,1,630.5153085326247,551.8385168741037) translate(0 14.4)"/><path d="M738.32 230.2l2.07 1.88 1.9 1.88 1.8 1.9 1.67 1.94 1.56 1.97 1.46 2 1.35 2.06 1.28 2.1 1.2 2.17 1.1 2.24 1.03 2.32.96 2.4.87 2.52.8 2.64.7 2.74-1.94.5-.7-2.7-.77-2.56-.86-2.43-.92-2.33-1-2.25-1.07-2.17-1.15-2.1-1.24-2.03-1.3-1.98-1.42-1.94-1.5-1.9-1.63-1.88-1.72-1.84-1.86-1.83-2-1.8-2.18-1.8-.9-.68h3.22zm-119.36-28.13v2l-40.33-.3v-2zM577.6 207.4l-14.23-4.74 14.3-4.53z"/><path d="M578.6 208.78l-18.47-6.14 18.55-5.88zm-12-6.1l10 3.34.06-6.52zM758.78 278.42l-6.14-13.68 9.2-1z"/><path d="M759.13 281.64l-7.97-17.75 11.95-1.3zm-5.02-16.06l4.33 9.62 2.16-10.32z"/><use xlink:href="#m" transform="matrix(1,0,0,1,618.9557422197697,186.05162458534946) translate(0.005000000000002558 14.4)"/><use xlink:href="#n" transform="matrix(1,0,0,1,618.9557422197697,186.05162458534946) translate(85.905 14.4)"/><use xlink:href="#o" transform="matrix(1,0,0,1,618.9557422197697,186.05162458534946) translate(17.955000000000005 36)"/><use xlink:href="#p" transform="matrix(1,0,0,1,618.9557422197697,186.05162458534946) translate(58.855000000000004 36)"/><use xlink:href="#q" transform="matrix(1,0,0,1,618.9557422197697,186.05162458534946) translate(74.855 36)"/><use xlink:href="#l" transform="matrix(1,0,0,1,618.9557422197697,186.05162458534946) translate(91.85500000000002 36)"/><path d="M259.13 150.64c0 6.63-53.72 12-120 12-66.27 0-120-5.37-120-12v-96c0-6.63 53.73-12 120-12 66.28 0 120 5.37 120 12z" stroke="#000" stroke-width="2" fill="#fff"/><path d="M259.13 54.64c0 6.63-53.72 12-120 12-66.27 0-120-5.37-120-12" stroke="#000" stroke-width="2" fill="none"/><use xlink:href="#r" transform="matrix(1,0,0,1,24.131975199291418,71.63851687410362) translate(71.05 46.6)"/><use xlink:href="#s" transform="matrix(1,0,0,1,24.131975199291418,71.63851687410362) translate(121 46.6)"/><path d="M299.76 204.77l-75.53 6.2-4.8.2v-2l4.67-.2 75.5-6.2zM140.2 166.63l.16 2.7.26 2.44.33 2.24.4 2.07.44 1.9.48 1.78.54 1.66.58 1.57.62 1.47.66 1.4.7 1.32.72 1.26.77 1.2.8 1.18.86 1.12.9 1.1.95 1.05 1 1.03 1.08 1 1.13.98.5.4H151l-1-.95-1.08-1.1-1-1.1-.96-1.16-.9-1.2-.86-1.23-.8-1.28-.8-1.34-.72-1.4-.7-1.47-.64-1.55-.6-1.63-.57-1.74-.52-1.86-.46-1.98-.42-2.16-.35-2.32-.26-2.53-.17-2.8-.05-2.04 2-.04z"/><path d="M139.13 163.64h1l.02 1-2 .05-.02-1.08zM314.9 202.84l-13.95 5.5-.57-9.25z"/><path d="M318.13 202.64l-18.1 7.13-.73-12zm-16.27 4.26l9.8-3.86-10.2-2.64z"/><g><use xlink:href="#t" transform="matrix(1,0,0,1,134.51757270133368,197.4726131859579) translate(0 14.4)"/></g><path d="M1099.13 170.64c0 6.63-53.72 12-120 12-66.27 0-120-5.37-120-12v-96c0-6.63 53.73-12 120-12 66.28 0 120 5.37 120 12z" stroke="#000" stroke-width="2" fill="#fff"/><path d="M1099.13 74.64c0 6.63-53.72 12-120 12-66.27 0-120-5.37-120-12" stroke="#000" stroke-width="2" fill="none"/><g><use xlink:href="#u" transform="matrix(1,0,0,1,864.1319751992914,91.63851687410362) translate(55.87499999999999 46.6)"/><use xlink:href="#v" transform="matrix(1,0,0,1,864.1319751992914,91.63851687410362) translate(86.225 46.6)"/><use xlink:href="#s" transform="matrix(1,0,0,1,864.1319751992914,91.63851687410362) translate(136.175 46.6)"/></g><path d="M964.34 278.94l-2.6 6.17-2.62 5.6-2.64 5.04-2.64 4.58-2.65 4.18-2.66 3.8-2.64 3.5-2.65 3.2-2.64 2.93-2.64 2.7-2.66 2.5-2.67 2.3-2.68 2.13-2.7 1.97-2.75 1.82-2.78 1.68-2.82 1.55-2.86 1.43-2.93 1.3-2.98 1.2-3.08 1.06-3.16.96-3.26.84-1.9.4-.42-1.96 1.86-.4 3.2-.8 3.07-.94 3-1.04 2.9-1.16 2.86-1.26 2.78-1.4 2.74-1.5 2.7-1.64 2.67-1.77 2.64-1.93 2.62-2.08 2.6-2.26 2.6-2.44 2.6-2.64 2.58-2.88 2.6-3.13 2.58-3.42 2.6-3.74 2.6-4.1 2.6-4.52 2.6-4.98 2.6-5.5 2.56-6.1.72-1.96h2.14zm15.77-94.28l-.27 13.4-.86 13.7-1.33 12.67-1.7 11.6-2 10.48-1.9 8.14h-2.06l2-8.54 1.98-10.4 1.7-11.52 1.32-12.6.85-13.6.28-13.36z"/><path d="M979.13 183.64h1l-.02 1.05-2-.05.03-1.03zM898 345.5l-14.65-3.2 13.73-6.03z"/><path d="M899.14 346.76l-19-4.12 17.8-7.84zM886.57 342l10.3 2.22-.65-6.48z"/><g><use xlink:href="#t" transform="matrix(1,0,0,1,925.5368215209467,254.639668876649) translate(0 14.4)"/></g><path d="M656.35 33.57l9.02 3.2 8.65 3.45 8.34 3.75 8.12 4.07L698 52.2l9.18 5.07 11.12 5.53 15.45 6.88L841.8 113.8l-.77 1.86-108.07-44.14-15.5-6.9-11.2-5.58-9.22-5.08-7.5-4.15-8.04-4.02-8.26-3.72-8.57-3.43-8.95-3.16-9.46-2.9-6.8-1.77h7.83zm-199.3-.43l-14.92 3.82-12.4 3.73-10.3 3.56-8.5 3.37-45.38 19.56L336 79.14l-28.53 10.08-46.1 14.07-.57-1.9 46.04-14.07 28.44-10.05 29.5-11.93 45.38-19.57 8.58-3.4 10.36-3.6 12.5-3.75 15-3.84 1.83-.4h9.65z"/><path d="M261.4 103.3l-1.27.38v-2.1l.7-.2zM855.2 121.26l-14.87-1.9 3.96-8.4z"/><path d="M858.13 122.64l-19.3-2.47 5.14-10.87zm-16.3-4.1l10.45 1.33-7.68-7.23z"/><g><use xlink:href="#w" transform="matrix(1,0,0,1,435.1145639749878,9.202081771073576) translate(0 14.4)"/><use xlink:href="#x" transform="matrix(1,0,0,1,435.1145639749878,9.202081771073576) translate(83.85000000000001 14.4)"/><use xlink:href="#y" transform="matrix(1,0,0,1,435.1145639749878,9.202081771073576) translate(183.70000000000002 14.4)"/><use xlink:href="#z" transform="matrix(1,0,0,1,435.1145639749878,9.202081771073576) translate(211.65 14.4)"/></g><defs><path d="M30 0v-248h33v221h125V0H30" id="A"/><path d="M100-194c62-1 85 37 85 99 1 63-27 99-86 99S16-35 15-95c0-66 28-99 85-99zM99-20c44 1 53-31 53-75 0-43-8-75-51-75s-53 32-53 75 10 74 51 75" id="B"/><path d="M117-194c89-4 53 116 60 194h-32v-121c0-31-8-49-39-48C34-167 62-67 57 0H25l-1-190h30c1 10-1 24 2 32 11-22 29-35 61-36" id="C"/><path d="M177-190C167-65 218 103 67 71c-23-6-38-20-44-43l32-5c15 47 100 32 89-28v-30C133-14 115 1 83 1 29 1 15-40 15-95c0-56 16-97 71-98 29-1 48 16 59 35 1-10 0-23 2-32h30zM94-22c36 0 50-32 50-73 0-42-14-75-50-75-39 0-46 34-46 75s6 73 46 73" id="D"/><path d="M185-189c-5-48-123-54-124 2 14 75 158 14 163 119 3 78-121 87-175 55-17-10-28-26-33-46l33-7c5 56 141 63 141-1 0-78-155-14-162-118-5-82 145-84 179-34 5 7 8 16 11 25" id="E"/><path d="M115-194c55 1 70 41 70 98S169 2 115 4C84 4 66-9 55-30l1 105H24l-1-265h31l2 30c10-21 28-34 59-34zm-8 174c40 0 45-34 45-75s-6-73-45-74c-42 0-51 32-51 76 0 43 10 73 51 73" id="F"/><path d="M24-231v-30h32v30H24zM24 0v-190h32V0H24" id="G"/><path d="M100-194c63 0 86 42 84 106H49c0 40 14 67 53 68 26 1 43-12 49-29l28 8c-11 28-37 45-77 45C44 4 14-33 15-96c1-61 26-98 85-98zm52 81c6-60-76-77-97-28-3 7-6 17-6 28h103" id="H"/><g id="a"><use transform="matrix(0.05,0,0,0.05,0,0)" xlink:href="#A"/><use transform="matrix(0.05,0,0,0.05,10,0)" xlink:href="#B"/><use transform="matrix(0.05,0,0,0.05,20,0)" xlink:href="#C"/><use transform="matrix(0.05,0,0,0.05,30,0)" xlink:href="#D"/><use transform="matrix(0.05,0,0,0.05,40,0)" xlink:href="#E"/><use transform="matrix(0.05,0,0,0.05,52,0)" xlink:href="#F"/><use transform="matrix(0.05,0,0,0.05,62,0)" xlink:href="#G"/><use transform="matrix(0.05,0,0,0.05,65.95,0)" xlink:href="#C"/><use transform="matrix(0.05,0,0,0.05,75.95,0)" xlink:href="#H"/></g><path d="M143 4C61 4 22-44 18-125c-5-107 100-154 193-111 17 8 29 25 37 43l-32 9c-13-25-37-40-76-40-61 0-88 39-88 99 0 61 29 100 91 101 35 0 62-11 79-27v-45h-74v-28h105v86C228-13 192 4 143 4" id="I"/><path d="M108 0H70L1-190h34L89-25l56-165h34" id="J"/><path d="M59-47c-2 24 18 29 38 22v24C64 9 27 4 27-40v-127H5v-23h24l9-43h21v43h35v23H59v120" id="K"/><g id="b"><use transform="matrix(0.05,0,0,0.05,0,0)" xlink:href="#I"/><use transform="matrix(0.05,0,0,0.05,14,0)" xlink:href="#B"/><use transform="matrix(0.05,0,0,0.05,24,0)" xlink:href="#J"/><use transform="matrix(0.05,0,0,0.05,33,0)" xlink:href="#K"/></g><path d="M114-163C36-179 61-72 57 0H25l-1-190h30c1 12-1 29 2 39 6-27 23-49 58-41v29" id="L"/><path d="M84 4C-5 8 30-112 23-190h32v120c0 31 7 50 39 49 72-2 45-101 50-169h31l1 190h-30c-1-10 1-25-2-33-11 22-28 36-60 37" id="M"/><path d="M96-169c-40 0-48 33-48 73s9 75 48 75c24 0 41-14 43-38l32 2c-6 37-31 61-74 61-59 0-76-41-82-99-10-93 101-131 147-64 4 7 5 14 7 22l-32 3c-4-21-16-35-41-35" id="N"/><g id="c"><use transform="matrix(0.05,0,0,0.05,0,0)" xlink:href="#E"/><use transform="matrix(0.05,0,0,0.05,12,0)" xlink:href="#K"/><use transform="matrix(0.05,0,0,0.05,17,0)" xlink:href="#L"/><use transform="matrix(0.05,0,0,0.05,22.95,0)" xlink:href="#M"/><use transform="matrix(0.05,0,0,0.05,32.95,0)" xlink:href="#N"/><use transform="matrix(0.05,0,0,0.05,41.95,0)" xlink:href="#K"/><use transform="matrix(0.05,0,0,0.05,46.95,0)" xlink:href="#M"/><use transform="matrix(0.05,0,0,0.05,56.95,0)" xlink:href="#L"/><use transform="matrix(0.05,0,0,0.05,62.900000000000006,0)" xlink:href="#H"/></g><path d="M30-248c118-7 216 8 213 122C240-48 200 0 122 0H30v-248zM63-27c89 8 146-16 146-99s-60-101-146-95v194" id="O"/><path d="M141-36C126-15 110 5 73 4 37 3 15-17 15-53c-1-64 63-63 125-63 3-35-9-54-41-54-24 1-41 7-42 31l-33-3c5-37 33-52 76-52 45 0 72 20 72 64v82c-1 20 7 32 28 27v20c-31 9-61-2-59-35zM48-53c0 20 12 33 32 33 41-3 63-29 60-74-43 2-92-5-92 41" id="P"/><path d="M115-194c53 0 69 39 70 98 0 66-23 100-70 100C84 3 66-7 56-30L54 0H23l1-261h32v101c10-23 28-34 59-34zm-8 174c40 0 45-34 45-75 0-40-5-75-45-74-42 0-51 32-51 76 0 43 10 73 51 73" id="Q"/><path d="M135-143c-3-34-86-38-87 0 15 53 115 12 119 90S17 21 10-45l28-5c4 36 97 45 98 0-10-56-113-15-118-90-4-57 82-63 122-42 12 7 21 19 24 35" id="R"/><g id="d"><use transform="matrix(0.05,0,0,0.05,0,0)" xlink:href="#O"/><use transform="matrix(0.05,0,0,0.05,12.950000000000001,0)" xlink:href="#P"/><use transform="matrix(0.05,0,0,0.05,22.950000000000003,0)" xlink:href="#K"/><use transform="matrix(0.05,0,0,0.05,27.950000000000003,0)" xlink:href="#P"/><use transform="matrix(0.05,0,0,0.05,37.95,0)" xlink:href="#Q"/><use transform="matrix(0.05,0,0,0.05,47.95,0)" xlink:href="#P"/><use transform="matrix(0.05,0,0,0.05,57.95,0)" xlink:href="#R"/><use transform="matrix(0.05,0,0,0.05,66.95,0)" xlink:href="#H"/></g><path d="M195 0l-74-108L45 0H8l94-129-87-119h37l69 98 67-98h37l-84 118L233 0h-38" id="S"/><use transform="matrix(0.05,0,0,0.05,0,0)" xlink:href="#S" id="e"/><path d="M137-103V0h-34v-103L8-248h37l75 118 75-118h37" id="T"/><use transform="matrix(0.05,0,0,0.05,0,0)" xlink:href="#T" id="f"/><path d="M143 0L79-87 56-68V0H24v-261h32v163l83-92h37l-77 82L181 0h-38" id="U"/><g id="g"><use transform="matrix(0.05,0,0,0.05,0,0)" xlink:href="#A"/><use transform="matrix(0.05,0,0,0.05,10,0)" xlink:href="#G"/><use transform="matrix(0.05,0,0,0.05,13.949999999999998,0)" xlink:href="#C"/><use transform="matrix(0.05,0,0,0.05,23.95,0)" xlink:href="#U"/><use transform="matrix(0.05,0,0,0.05,32.95,0)" xlink:href="#R"/><use transform="matrix(0.05,0,0,0.05,41.95,0)" xlink:href="#H"/><use transform="matrix(0.05,0,0,0.05,51.95,0)" xlink:href="#K"/></g><path d="M205 0l-28-72H64L36 0H1l101-248h38L239 0h-34zm-38-99l-47-123c-12 45-31 82-46 123h93" id="V"/><use transform="matrix(0.05,0,0,0.05,0,0)" xlink:href="#V" id="h"/><path d="M24 0v-261h32V0H24" id="W"/><g id="i"><use transform="matrix(0.05,0,0,0.05,0,0)" xlink:href="#W"/><use transform="matrix(0.05,0,0,0.05,3.95,0)" xlink:href="#G"/><use transform="matrix(0.05,0,0,0.05,7.9,0)" xlink:href="#C"/><use transform="matrix(0.05,0,0,0.05,17.9,0)" xlink:href="#U"/><use transform="matrix(0.05,0,0,0.05,26.899999999999995,0)" xlink:href="#R"/></g><path d="M63-220v92h138v28H63V0H30v-248h175v28H63" id="X"/><g id="j"><use transform="matrix(0.05,0,0,0.05,0,0)" xlink:href="#X"/><use transform="matrix(0.05,0,0,0.05,10.950000000000001,0)" xlink:href="#M"/><use transform="matrix(0.05,0,0,0.05,20.950000000000003,0)" xlink:href="#C"/><use transform="matrix(0.05,0,0,0.05,30.950000000000003,0)" xlink:href="#N"/><use transform="matrix(0.05,0,0,0.05,39.95,0)" xlink:href="#K"/><use transform="matrix(0.05,0,0,0.05,44.95,0)" xlink:href="#G"/><use transform="matrix(0.05,0,0,0.05,48.900000000000006,0)" xlink:href="#B"/><use transform="matrix(0.05,0,0,0.05,58.900000000000006,0)" xlink:href="#C"/><use transform="matrix(0.05,0,0,0.05,68.9,0)" xlink:href="#R"/></g><path d="M209 0H11v-25l151-195H24v-28h176v25L50-27h159V0" id="Y"/><use transform="matrix(0.05,0,0,0.05,0,0)" xlink:href="#Y" id="k"/><path d="M160-131c35 5 61 23 61 61C221 17 115-2 30 0v-248c76 3 177-17 177 60 0 33-19 50-47 57zm-97-11c50-1 110 9 110-42 0-47-63-36-110-37v79zm0 115c55-2 124 14 124-45 0-56-70-42-124-44v89" id="Z"/><use transform="matrix(0.05,0,0,0.05,0,0)" xlink:href="#Z" id="l"/><path d="M85-194c31 0 48 13 60 33l-1-100h32l1 261h-30c-2-10 0-23-3-31C134-8 116 4 85 4 32 4 16-35 15-94c0-66 23-100 70-100zm9 24c-40 0-46 34-46 75 0 40 6 74 45 74 42 0 51-32 51-76 0-42-9-74-50-73" id="aa"/><g id="m"><use transform="matrix(0.05,0,0,0.05,0,0)" xlink:href="#N"/><use transform="matrix(0.05,0,0,0.05,9,0)" xlink:href="#P"/><use transform="matrix(0.05,0,0,0.05,19,0)" xlink:href="#W"/><use transform="matrix(0.05,0,0,0.05,22.95,0)" xlink:href="#N"/><use transform="matrix(0.05,0,0,0.05,31.950000000000003,0)" xlink:href="#M"/><use transform="matrix(0.05,0,0,0.05,41.95,0)" xlink:href="#W"/><use transform="matrix(0.05,0,0,0.05,45.900000000000006,0)" xlink:href="#P"/><use transform="matrix(0.05,0,0,0.05,55.900000000000006,0)" xlink:href="#K"/><use transform="matrix(0.05,0,0,0.05,60.900000000000006,0)" xlink:href="#H"/><use transform="matrix(0.05,0,0,0.05,70.9,0)" xlink:href="#aa"/></g><g id="n"><use transform="matrix(0.05,0,0,0.05,0,0)" xlink:href="#W"/><use transform="matrix(0.05,0,0,0.05,3.95,0)" xlink:href="#G"/><use transform="matrix(0.05,0,0,0.05,7.9,0)" xlink:href="#C"/><use transform="matrix(0.05,0,0,0.05,17.9,0)" xlink:href="#U"/><use transform="matrix(0.05,0,0,0.05,26.899999999999995,0)" xlink:href="#R"/></g><path d="M101-234c-31-9-42 10-38 44h38v23H63V0H32v-167H5v-23h27c-7-52 17-82 69-68v24" id="ab"/><path d="M210-169c-67 3-38 105-44 169h-31v-121c0-29-5-50-35-48C34-165 62-65 56 0H25l-1-190h30c1 10-1 24 2 32 10-44 99-50 107 0 11-21 27-35 58-36 85-2 47 119 55 194h-31v-121c0-29-5-49-35-48" id="ac"/><g id="o"><use transform="matrix(0.05,0,0,0.05,0,0)" xlink:href="#ab"/><use transform="matrix(0.05,0,0,0.05,5,0)" xlink:href="#L"/><use transform="matrix(0.05,0,0,0.05,10.95,0)" xlink:href="#B"/><use transform="matrix(0.05,0,0,0.05,20.95,0)" xlink:href="#ac"/></g><use transform="matrix(0.05,0,0,0.05,0,0)" xlink:href="#V" id="p"/><path d="M234-2c-28 10-62 0-77-18C117 19 8 12 13-65c3-43 29-61 60-76-25-40-17-114 47-108 35 3 59 15 59 50 0 44-40 53-71 69 14 26 32 50 51 72 14-21 24-43 30-72l26 8c-9 33-21 57-38 82 13 13 33 22 57 15v23zM97-151c25-10 52-18 56-48-1-18-13-29-33-29-42 0-39 50-23 77zM42-66c-3 51 71 58 98 28-20-24-41-51-56-80-23 10-40 24-42 52" id="ad"/><use transform="matrix(0.05,0,0,0.05,0,0)" xlink:href="#ad" id="q"/><path d="M140-251c81 0 123 46 123 126C263-46 219 4 140 4 59 4 17-45 17-125s42-126 123-126zm0 227c63 0 89-41 89-101s-29-99-89-99c-61 0-89 39-89 99S79-25 140-24" id="ae"/><path d="M106-169C34-169 62-67 57 0H25v-261h32l-1 103c12-21 28-36 61-36 89 0 53 116 60 194h-32v-121c2-32-8-49-39-48" id="af"/><g id="r"><use transform="matrix(0.05,0,0,0.05,0,0)" xlink:href="#ae"/><use transform="matrix(0.05,0,0,0.05,14,0)" xlink:href="#K"/><use transform="matrix(0.05,0,0,0.05,19,0)" xlink:href="#af"/><use transform="matrix(0.05,0,0,0.05,29,0)" xlink:href="#H"/><use transform="matrix(0.05,0,0,0.05,39,0)" xlink:href="#L"/></g><g id="s"><use transform="matrix(0.05,0,0,0.05,0,0)" xlink:href="#O"/><use transform="matrix(0.05,0,0,0.05,12.950000000000001,0)" xlink:href="#P"/><use transform="matrix(0.05,0,0,0.05,22.950000000000003,0)" xlink:href="#K"/><use transform="matrix(0.05,0,0,0.05,27.950000000000003,0)" xlink:href="#P"/></g><g id="t"><use transform="matrix(0.05,0,0,0.05,0,0)" xlink:href="#L"/><use transform="matrix(0.05,0,0,0.05,5.95,0)" xlink:href="#H"/><use transform="matrix(0.05,0,0,0.05,15.949999999999998,0)" xlink:href="#ab"/><use transform="matrix(0.05,0,0,0.05,20.95,0)" xlink:href="#H"/><use transform="matrix(0.05,0,0,0.05,30.950000000000003,0)" xlink:href="#L"/><use transform="matrix(0.05,0,0,0.05,36.9,0)" xlink:href="#H"/><use transform="matrix(0.05,0,0,0.05,46.9,0)" xlink:href="#C"/><use transform="matrix(0.05,0,0,0.05,56.900000000000006,0)" xlink:href="#N"/><use transform="matrix(0.05,0,0,0.05,65.9,0)" xlink:href="#H"/><use transform="matrix(0.05,0,0,0.05,75.9,0)" xlink:href="#R"/></g><g id="u"><use transform="matrix(0.05,0,0,0.05,0,0)" xlink:href="#T"/><use transform="matrix(0.05,0,0,0.05,10.35,0)" xlink:href="#H"/><use transform="matrix(0.05,0,0,0.05,20.35,0)" xlink:href="#K"/></g><g id="v"><use transform="matrix(0.05,0,0,0.05,0,0)" xlink:href="#ae"/><use transform="matrix(0.05,0,0,0.05,14,0)" xlink:href="#K"/><use transform="matrix(0.05,0,0,0.05,19,0)" xlink:href="#af"/><use transform="matrix(0.05,0,0,0.05,29,0)" xlink:href="#H"/><use transform="matrix(0.05,0,0,0.05,39,0)" xlink:href="#L"/></g><path d="M206 0h-36l-40-164L89 0H53L-1-190h32L70-26l43-164h34l41 164 42-164h31" id="ag"/><g id="w"><use transform="matrix(0.05,0,0,0.05,0,0)" xlink:href="#N"/><use transform="matrix(0.05,0,0,0.05,9,0)" xlink:href="#L"/><use transform="matrix(0.05,0,0,0.05,14.949999999999998,0)" xlink:href="#B"/><use transform="matrix(0.05,0,0,0.05,24.95,0)" xlink:href="#R"/><use transform="matrix(0.05,0,0,0.05,33.95,0)" xlink:href="#R"/><use transform="matrix(0.05,0,0,0.05,42.95,0)" xlink:href="#ag"/><use transform="matrix(0.05,0,0,0.05,55.900000000000006,0)" xlink:href="#P"/><use transform="matrix(0.05,0,0,0.05,65.9,0)" xlink:href="#W"/><use transform="matrix(0.05,0,0,0.05,69.85000000000001,0)" xlink:href="#U"/></g><g id="x"><use transform="matrix(0.05,0,0,0.05,0,0)" xlink:href="#N"/><use transform="matrix(0.05,0,0,0.05,9,0)" xlink:href="#P"/><use transform="matrix(0.05,0,0,0.05,19,0)" xlink:href="#W"/><use transform="matrix(0.05,0,0,0.05,22.95,0)" xlink:href="#N"/><use transform="matrix(0.05,0,0,0.05,31.950000000000003,0)" xlink:href="#M"/><use transform="matrix(0.05,0,0,0.05,41.95,0)" xlink:href="#W"/><use transform="matrix(0.05,0,0,0.05,45.900000000000006,0)" xlink:href="#P"/><use transform="matrix(0.05,0,0,0.05,55.900000000000006,0)" xlink:href="#K"/><use transform="matrix(0.05,0,0,0.05,60.900000000000006,0)" xlink:href="#P"/><use transform="matrix(0.05,0,0,0.05,70.9,0)" xlink:href="#Q"/><use transform="matrix(0.05,0,0,0.05,80.9,0)" xlink:href="#W"/><use transform="matrix(0.05,0,0,0.05,84.85000000000001,0)" xlink:href="#H"/></g><g id="y"><use transform="matrix(0.05,0,0,0.05,0,0)" xlink:href="#J"/><use transform="matrix(0.05,0,0,0.05,9,0)" xlink:href="#G"/><use transform="matrix(0.05,0,0,0.05,12.949999999999998,0)" xlink:href="#P"/></g><g id="z"><use transform="matrix(0.05,0,0,0.05,0,0)" xlink:href="#R"/><use transform="matrix(0.05,0,0,0.05,9,0)" xlink:href="#F"/><use transform="matrix(0.05,0,0,0.05,19,0)" xlink:href="#G"/><use transform="matrix(0.05,0,0,0.05,22.95,0)" xlink:href="#C"/><use transform="matrix(0.05,0,0,0.05,32.95,0)" xlink:href="#H"/></g></defs></g></svg>