<svg xmlns="http://www.w3.org/2000/svg" xmlns:xlink="http://www.w3.org/1999/xlink" xmlns:lucid="lucid" width="1906.99" height="366.99"><g transform="translate(-10.23905397078559 -10.23905397078559)" lucid:page-tab-id="Zy9rYQ8tdaMM"><path d="M0 0h3474.47v1250.38H0z" fill="#fff"/><path d="M158.24 30.24c17.67 0 32 17.9 32 40s-14.33 40-32 40h-96c-17.67 0-32-17.9-32-40s14.33-40 32-40z" stroke="#000" stroke-width="2" fill="#fff"/><use xlink:href="#a" transform="matrix(1,0,0,1,35.23905397078559,35.23905397078559) translate(40.525 38.6)"/><use xlink:href="#b" transform="matrix(1,0,0,1,35.23905397078559,35.23905397078559) translate(97.475 38.6)"/><path d="M158.24 190.24c17.67 0 32 17.9 32 40s-14.33 40-32 40h-96c-17.67 0-32-17.9-32-40s14.33-40 32-40z" stroke="#000" stroke-width="2" fill="#fff"/><use xlink:href="#c" transform="matrix(1,0,0,1,35.23905397078559,195.2390539707856) translate(14.949999999999996 38.6)"/><use xlink:href="#d" transform="matrix(1,0,0,1,35.23905397078559,195.2390539707856) translate(59.15 38.6)"/><use xlink:href="#e" transform="matrix(1,0,0,1,35.23905397078559,195.2390539707856) translate(123.05000000000001 38.6)"/><path d="M111.24 187.42h-2v-31.76h2zm0-53.36h-2v-21.82h2z"/><path d="M111.24 112.26h-2v-1.02h2zM121.28 170.57l-11.04 18.67-11.04-18.67 1.72-1.02 9.32 15.76 9.32-15.75z"/><use xlink:href="#f" transform="matrix(1,0,0,1,76.13905397078558,134.059743625958) translate(0 14.4)"/><path d="M347.04 30.24c17.68 0 32 17.9 32 40s-14.32 40-32 40h-96c-17.67 0-32-17.9-32-40s14.33-40 32-40z" stroke="#000" stroke-width="2" fill="#fff"/><use xlink:href="#a" transform="matrix(1,0,0,1,224.04378411685752,35.23905397078559) translate(40.525 38.6)"/><use xlink:href="#b" transform="matrix(1,0,0,1,224.04378411685752,35.23905397078559) translate(97.475 38.6)"/><path d="M681.2 30.24c17.67 0 32 17.9 32 40s-14.33 40-32 40h-96c-17.67 0-32-17.9-32-40s14.33-40 32-40z" stroke="#000" stroke-width="2" fill="#fff"/><use xlink:href="#a" transform="matrix(1,0,0,1,558.1988031765782,35.23905397078559) translate(40.525 38.6)"/><use xlink:href="#e" transform="matrix(1,0,0,1,558.1988031765782,35.23905397078559) translate(97.475 38.6)"/><path d="M420.22 71.24h-39.18v-2h39.18zm130.16 0h-38.36v-2h38.36z"/><path d="M381.07 71.24h-1.1l.07-1-.03-1h1.07zM552.2 70.24l-18.67 11.04-1.02-1.72 15.77-9.32-15.76-9.32 1.03-1.72z"/><use xlink:href="#g" transform="matrix(1,0,0,1,420.22129364671787,48.63905397078559) translate(23.93 14.4)"/><use xlink:href="#h" transform="matrix(1,0,0,1,420.22129364671787,48.63905397078559) translate(0.005000000000002558 36)"/><path d="M521.2 190.24c17.67 0 32 17.9 32 40s-14.33 40-32 40h-96c-17.67 0-32-17.9-32-40s14.33-40 32-40z" stroke="#000" stroke-width="2" fill="#fff"/><use xlink:href="#c" transform="matrix(1,0,0,1,398.19880317657794,195.2390539707856) translate(15.474999999999994 38.6)"/><use xlink:href="#d" transform="matrix(1,0,0,1,398.19880317657794,195.2390539707856) translate(59.675 38.6)"/><use xlink:href="#i" transform="matrix(1,0,0,1,398.19880317657794,195.2390539707856) translate(123.575 38.6)"/><path d="M474.2 187.42h-2v-43.7h2zm0-65.3h-2V91.83h2z"/><path/><path d="M484.24 170.57l-11.04 18.67-11.04-18.67 1.72-1.02 9.32 15.76 9.32-15.75z"/><use xlink:href="#f" transform="matrix(1,0,0,1,439.098803176578,122.11146776388905) translate(0 14.4)"/><path d="M859.07 117.6c17.67 0 32 17.9 32 40 0 22.08-14.33 40-32 40h-96c-17.68 0-32-17.92-32-40 0-22.1 14.32-40 32-40z" stroke="#000" stroke-width="2" fill="#fff"/><use xlink:href="#a" transform="matrix(1,0,0,1,736.0653975134715,122.58668617512802) translate(40.525 38.6)"/><use xlink:href="#b" transform="matrix(1,0,0,1,736.0653975134715,122.58668617512802) translate(97.475 38.6)"/><path d="M1139.07 117.6c17.67 0 32 17.9 32 40 0 22.08-14.33 40-32 40h-96c-17.68 0-32-17.92-32-40 0-22.1 14.32-40 32-40z" stroke="#000" stroke-width="2" fill="#fff"/><use xlink:href="#a" transform="matrix(1,0,0,1,1016.0653975134715,122.58668617512802) translate(40.525 38.6)"/><use xlink:href="#e" transform="matrix(1,0,0,1,1016.0653975134715,122.58668617512802) translate(97.475 38.6)"/><path d="M975.4 80.88l5 1.85 4.83 2.18 4.8 2.57 4.9 3.04 5.03 3.63 5.3 4.37 5.7 5.38 6.24 6.75 7.05 8.72 1.07 1.44-1.6 1.18-1.05-1.4-6.98-8.64-6.17-6.65-5.6-5.3-5.2-4.3-4.92-3.53-4.75-2.96-4.7-2.5-4.72-2.12-4.85-1.8-1.95-.58v-2.1zm-53.52-.04l-1.92.47-4.75 1.46-4.7 1.76-4.76 2.1-4.82 2.47-4.97 2.92-5.17 3.48-5.44 4.15-5.8 4.97-6.22 6.04-6.15 6.7-1.48-1.35 6.18-6.74 6.32-6.12 5.88-5.05 5.53-4.23 5.28-3.54 5.07-3 4.93-2.52 4.86-2.14 4.83-1.8 4.86-1.48 2.45-.6z"/><path d="M867.18 117.35l-.38.4-1.05-.32-1.15-.22 1.1-1.2zM1025.6 122.84l-20.25-7.74.7-1.87 17.1 6.54-2.5-18.14 2-.27z"/><use xlink:href="#j" transform="matrix(1,0,0,1,921.8766349731475,66.44493243132355) translate(0 14.4)"/><path d="M865.16 201.18l.42 1.92.5 1.85.55 1.8.62 1.73.68 1.7.75 1.64.8 1.6.9 1.58.94 1.55 1.03 1.52 1.1 1.5 1.18 1.46 1.28 1.45 1.37 1.44 1.47 1.4 1.58 1.42 1.7 1.38 1.83 1.37 1.98 1.34 2.13 1.33 2.3 1.3 2.48 1.27 2.68 1.24 2.9 1.2 3.13 1.13 3.38 1.08 3.64 1 3.92.88 4.2.77 4.48.62 4.76.47.96.05v2l-1.12-.06-4.84-.46-4.56-.64-4.3-.78-4-.9-3.7-1.02-3.47-1.1-3.2-1.16-2.98-1.23-2.76-1.26-2.56-1.3-2.37-1.35-2.2-1.4-2.04-1.38-1.9-1.42-1.77-1.44-1.64-1.46-1.54-1.47-1.43-1.5-1.33-1.5-1.23-1.55-1.16-1.56-1.06-1.6-1-1.6-.9-1.65-.87-1.68-.78-1.74-.72-1.77-.65-1.82-.58-1.87-.5-1.93-.45-2-.26-1.44 1.97-.34zm165.82-4.36l-.66 1.34-1.2 2.25-1.35 2.26-1.47 2.25-1.6 2.26-1.77 2.25-1.92 2.27-2.1 2.26-2.27 2.27-2.48 2.27-2.7 2.26-2.94 2.26-3.17 2.24-3.45 2.23-3.73 2.18-4 2.14-4.3 2.05-4.6 1.97-4.88 1.85-5.13 1.7-5.35 1.55-5.54 1.34-1.6.32v-2.04l1.17-.24 5.45-1.32 5.27-1.5 5.05-1.7 4.8-1.8 4.5-1.95 4.24-2.03 3.94-2.1 3.65-2.14 3.38-2.18 3.12-2.2 2.87-2.2 2.63-2.22 2.42-2.2 2.23-2.22 2.03-2.2 1.88-2.2 1.7-2.18 1.57-2.18 1.42-2.18 1.3-2.18 1.17-2.17.64-1.3z"/><path d="M1029.78 195.14l1.64.76-.45.94-1.8-.87.45-.94zM879.54 212.93l-1.36 1.46-13.4-12.47-4.47 17.76-1.93-.5 5.28-21.04z"/><use xlink:href="#k" transform="matrix(1,0,0,1,926.8018616607797,233.28419469072406) translate(0 14.4)"/><path d="M1321.83 117.6c17.67 0 32 17.9 32 40 0 22.08-14.33 40-32 40h-96c-17.67 0-32-17.92-32-40 0-22.1 14.33-40 32-40z" stroke="#000" stroke-width="2" fill="#fff"/><use xlink:href="#a" transform="matrix(1,0,0,1,1198.8317468918399,122.58668617512802) translate(40.525 38.6)"/><use xlink:href="#b" transform="matrix(1,0,0,1,1198.8317468918399,122.58668617512802) translate(97.475 38.6)"/><path d="M1601.83 117.6c17.67 0 32 17.9 32 40 0 22.08-14.33 40-32 40h-96c-17.67 0-32-17.92-32-40 0-22.1 14.33-40 32-40z" stroke="#000" stroke-width="2" fill="#fff"/><use xlink:href="#a" transform="matrix(1,0,0,1,1478.8317468918399,122.58668617512802) translate(40.525 38.6)"/><use xlink:href="#e" transform="matrix(1,0,0,1,1478.8317468918399,122.58668617512802) translate(97.475 38.6)"/><path d="M1384.9 158.6h-29.07v-2h29.08zm86.1 0h-28.24v-2H1471z"/><path d="M1355.86 158.6h-1.1l.07-1-.03-1h1.06zM1472.83 157.6l-18.67 11.03-1.02-1.72 15.76-9.3-15.76-9.33 1.02-1.72z"/><use xlink:href="#l" transform="matrix(1,0,0,1,1384.90674689184,135.98668617512803) translate(0 14.4)"/><use xlink:href="#m" transform="matrix(1,0,0,1,1384.90674689184,135.98668617512803) translate(0 36)"/><path d="M80.24 297.23h60v60h-60z" stroke="#000" stroke-opacity="0" stroke-width="2" fill="#fff" fill-opacity="0"/><use xlink:href="#n" transform="matrix(1,0,0,1,85.23905397078559,302.233650621632) translate(18.525 28.6)"/><path d="M443.2 297.23h60v60h-60z" stroke="#000" stroke-opacity="0" stroke-width="2" fill="#fff" fill-opacity="0"/><use xlink:href="#o" transform="matrix(1,0,0,1,448.19880317657794,302.233650621632) translate(18.525 28.6)"/><path d="M931.07 297.23h60v60h-60z" stroke="#000" stroke-opacity="0" stroke-width="2" fill="#fff" fill-opacity="0"/><use xlink:href="#p" transform="matrix(1,0,0,1,936.0653975134713,302.233650621632) translate(18.525 28.6)"/><path d="M1376.67 297.23h60v60h-60z" stroke="#000" stroke-opacity="0" stroke-width="2" fill="#fff" fill-opacity="0"/><g><use xlink:href="#q" transform="matrix(1,0,0,1,1381.6713244829657,302.233650621632) translate(18.525 28.6)"/></g><path d="M1865.23 30.24c17.68 0 32 17.9 32 40s-14.32 40-32 40h-96c-17.67 0-32-17.9-32-40s14.33-40 32-40z" stroke="#000" stroke-width="2" fill="#fff"/><g><use xlink:href="#a" transform="matrix(1,0,0,1,1742.2336506216318,35.23905397078559) translate(40.525 38.6)"/><use xlink:href="#b" transform="matrix(1,0,0,1,1742.2336506216318,35.23905397078559) translate(97.475 38.6)"/></g><path d="M1865.23 190.24c17.68 0 32 17.9 32 40s-14.32 40-32 40h-96c-17.67 0-32-17.9-32-40s14.33-40 32-40z" stroke="#000" stroke-width="2" fill="#fff"/><g><use xlink:href="#a" transform="matrix(1,0,0,1,1742.2336506216318,195.2390539707856) translate(40.525 38.6)"/><use xlink:href="#e" transform="matrix(1,0,0,1,1742.2336506216318,195.2390539707856) translate(97.475 38.6)"/></g><path d="M1818.23 187.42h-2v-30.78h2zm0-52.38h-2v-22.8h2z"/><path d="M1818.23 112.26h-2v-1.02h2zM1817.23 185.3l9.32-15.75 1.73 1.02-11.05 18.67-11.04-18.67 1.7-1.02z"/><g><use xlink:href="#r" transform="matrix(1,0,0,1,1760.8586506216318,135.0404373799347) translate(0 14.4)"/><use xlink:href="#s" transform="matrix(1,0,0,1,1760.8586506216318,135.0404373799347) translate(62.85 14.4)"/></g><path d="M1787.23 297.23h60v60h-60z" stroke="#000" stroke-opacity="0" stroke-width="2" fill="#fff" fill-opacity="0"/><g><use xlink:href="#t" transform="matrix(1,0,0,1,1792.2336506216318,302.233650621632) translate(19 28.6)"/></g><defs><path d="M140-251c81 0 123 46 123 126C263-46 219 4 140 4 59 4 17-45 17-125s42-126 123-126zm0 227c63 0 89-41 89-101s-29-99-89-99c-61 0-89 39-89 99S79-25 140-24" id="u"/><path d="M115-194c53 0 69 39 70 98 0 66-23 100-70 100C84 3 66-7 56-30L54 0H23l1-261h32v101c10-23 28-34 59-34zm-8 174c40 0 45-34 45-75 0-40-5-75-45-74-42 0-51 32-51 76 0 43 10 73 51 73" id="v"/><path d="M24-231v-30h32v30H24zM-9 49c24 4 33-6 33-30v-209h32V24c2 40-23 58-65 49V49" id="w"/><path d="M100-194c63 0 86 42 84 106H49c0 40 14 67 53 68 26 1 43-12 49-29l28 8c-11 28-37 45-77 45C44 4 14-33 15-96c1-61 26-98 85-98zm52 81c6-60-76-77-97-28-3 7-6 17-6 28h103" id="x"/><path d="M96-169c-40 0-48 33-48 73s9 75 48 75c24 0 41-14 43-38l32 2c-6 37-31 61-74 61-59 0-76-41-82-99-10-93 101-131 147-64 4 7 5 14 7 22l-32 3c-4-21-16-35-41-35" id="y"/><path d="M59-47c-2 24 18 29 38 22v24C64 9 27 4 27-40v-127H5v-23h24l9-43h21v43h35v23H59v120" id="z"/><g id="a"><use transform="matrix(0.05,0,0,0.05,0,0)" xlink:href="#u"/><use transform="matrix(0.05,0,0,0.05,14,0)" xlink:href="#v"/><use transform="matrix(0.05,0,0,0.05,24,0)" xlink:href="#w"/><use transform="matrix(0.05,0,0,0.05,27.950000000000003,0)" xlink:href="#x"/><use transform="matrix(0.05,0,0,0.05,37.95,0)" xlink:href="#y"/><use transform="matrix(0.05,0,0,0.05,46.95,0)" xlink:href="#z"/></g><path d="M195 0l-74-108L45 0H8l94-129-87-119h37l69 98 67-98h37l-84 118L233 0h-38" id="A"/><use transform="matrix(0.05,0,0,0.05,0,0)" xlink:href="#A" id="b"/><path d="M127-220V0H93v-220H8v-28h204v28h-85" id="B"/><path d="M24-231v-30h32v30H24zM24 0v-190h32V0H24" id="C"/><path d="M210-169c-67 3-38 105-44 169h-31v-121c0-29-5-50-35-48C34-165 62-65 56 0H25l-1-190h30c1 10-1 24 2 32 10-44 99-50 107 0 11-21 27-35 58-36 85-2 47 119 55 194h-31v-121c0-29-5-49-35-48" id="D"/><g id="c"><use transform="matrix(0.05,0,0,0.05,0,0)" xlink:href="#B"/><use transform="matrix(0.05,0,0,0.05,10.3,0)" xlink:href="#C"/><use transform="matrix(0.05,0,0,0.05,14.25,0)" xlink:href="#D"/><use transform="matrix(0.05,0,0,0.05,29.200000000000003,0)" xlink:href="#x"/></g><path d="M33 0v-248h34V0H33" id="E"/><path d="M117-194c89-4 53 116 60 194h-32v-121c0-31-8-49-39-48C34-167 62-67 57 0H25l-1-190h30c1 10-1 24 2 32 11-22 29-35 61-36" id="F"/><path d="M114-163C36-179 61-72 57 0H25l-1-190h30c1 12-1 29 2 39 6-27 23-49 58-41v29" id="G"/><path d="M108 0H70L1-190h34L89-25l56-165h34" id="H"/><path d="M141-36C126-15 110 5 73 4 37 3 15-17 15-53c-1-64 63-63 125-63 3-35-9-54-41-54-24 1-41 7-42 31l-33-3c5-37 33-52 76-52 45 0 72 20 72 64v82c-1 20 7 32 28 27v20c-31 9-61-2-59-35zM48-53c0 20 12 33 32 33 41-3 63-29 60-74-43 2-92-5-92 41" id="I"/><path d="M24 0v-261h32V0H24" id="J"/><g id="d"><use transform="matrix(0.05,0,0,0.05,0,0)" xlink:href="#E"/><use transform="matrix(0.05,0,0,0.05,5,0)" xlink:href="#F"/><use transform="matrix(0.05,0,0,0.05,15,0)" xlink:href="#z"/><use transform="matrix(0.05,0,0,0.05,20,0)" xlink:href="#x"/><use transform="matrix(0.05,0,0,0.05,30,0)" xlink:href="#G"/><use transform="matrix(0.05,0,0,0.05,35.95,0)" xlink:href="#H"/><use transform="matrix(0.05,0,0,0.05,44.95,0)" xlink:href="#I"/><use transform="matrix(0.05,0,0,0.05,54.95,0)" xlink:href="#J"/></g><path d="M137-103V0h-34v-103L8-248h37l75 118 75-118h37" id="K"/><use transform="matrix(0.05,0,0,0.05,0,0)" xlink:href="#K" id="e"/><path d="M106-169C34-169 62-67 57 0H25v-261h32l-1 103c12-21 28-36 61-36 89 0 53 116 60 194h-32v-121c2-32-8-49-39-48" id="L"/><path d="M135-143c-3-34-86-38-87 0 15 53 115 12 119 90S17 21 10-45l28-5c4 36 97 45 98 0-10-56-113-15-118-90-4-57 82-63 122-42 12 7 21 19 24 35" id="M"/><g id="f"><use transform="matrix(0.05,0,0,0.05,0,0)" xlink:href="#L"/><use transform="matrix(0.05,0,0,0.05,10,0)" xlink:href="#I"/><use transform="matrix(0.05,0,0,0.05,20,0)" xlink:href="#M"/><use transform="matrix(0.05,0,0,0.05,29,0)" xlink:href="#B"/><use transform="matrix(0.05,0,0,0.05,39.300000000000004,0)" xlink:href="#C"/><use transform="matrix(0.05,0,0,0.05,43.25000000000001,0)" xlink:href="#D"/><use transform="matrix(0.05,0,0,0.05,58.20000000000002,0)" xlink:href="#x"/></g><path d="M100-194c62-1 85 37 85 99 1 63-27 99-86 99S16-35 15-95c0-66 28-99 85-99zM99-20c44 1 53-31 53-75 0-43-8-75-51-75s-53 32-53 75 10 74 51 75" id="N"/><g id="g"><use transform="matrix(0.05,0,0,0.05,0,0)" xlink:href="#M"/><use transform="matrix(0.05,0,0,0.05,9,0)" xlink:href="#N"/><use transform="matrix(0.05,0,0,0.05,19,0)" xlink:href="#D"/><use transform="matrix(0.05,0,0,0.05,33.95,0)" xlink:href="#x"/></g><path d="M115-194c55 1 70 41 70 98S169 2 115 4C84 4 66-9 55-30l1 105H24l-1-265h31l2 30c10-21 28-34 59-34zm-8 174c40 0 45-34 45-75s-6-73-45-74c-42 0-51 32-51 76 0 43 10 73 51 73" id="O"/><g id="h"><use transform="matrix(0.05,0,0,0.05,0,0)" xlink:href="#G"/><use transform="matrix(0.05,0,0,0.05,5.95,0)" xlink:href="#x"/><use transform="matrix(0.05,0,0,0.05,15.949999999999998,0)" xlink:href="#J"/><use transform="matrix(0.05,0,0,0.05,19.9,0)" xlink:href="#I"/><use transform="matrix(0.05,0,0,0.05,29.899999999999995,0)" xlink:href="#z"/><use transform="matrix(0.05,0,0,0.05,34.9,0)" xlink:href="#C"/><use transform="matrix(0.05,0,0,0.05,38.85,0)" xlink:href="#N"/><use transform="matrix(0.05,0,0,0.05,48.85,0)" xlink:href="#F"/><use transform="matrix(0.05,0,0,0.05,58.85,0)" xlink:href="#M"/><use transform="matrix(0.05,0,0,0.05,67.85,0)" xlink:href="#L"/><use transform="matrix(0.05,0,0,0.05,77.85,0)" xlink:href="#C"/><use transform="matrix(0.05,0,0,0.05,81.8,0)" xlink:href="#O"/></g><path d="M209 0H11v-25l151-195H24v-28h176v25L50-27h159V0" id="P"/><use transform="matrix(0.05,0,0,0.05,0,0)" xlink:href="#P" id="i"/><path d="M101-234c-31-9-42 10-38 44h38v23H63V0H32v-167H5v-23h27c-7-52 17-82 69-68v24" id="Q"/><g id="j"><use transform="matrix(0.05,0,0,0.05,0,0)" xlink:href="#v"/><use transform="matrix(0.05,0,0,0.05,10,0)" xlink:href="#x"/><use transform="matrix(0.05,0,0,0.05,20,0)" xlink:href="#Q"/><use transform="matrix(0.05,0,0,0.05,25,0)" xlink:href="#N"/><use transform="matrix(0.05,0,0,0.05,35,0)" xlink:href="#G"/><use transform="matrix(0.05,0,0,0.05,40.95,0)" xlink:href="#x"/></g><g id="k"><use transform="matrix(0.05,0,0,0.05,0,0)" xlink:href="#I"/><use transform="matrix(0.05,0,0,0.05,10,0)" xlink:href="#Q"/><use transform="matrix(0.05,0,0,0.05,15,0)" xlink:href="#z"/><use transform="matrix(0.05,0,0,0.05,20,0)" xlink:href="#x"/><use transform="matrix(0.05,0,0,0.05,30,0)" xlink:href="#G"/></g><g id="l"><use transform="matrix(0.05,0,0,0.05,0,0)" xlink:href="#C"/><use transform="matrix(0.05,0,0,0.05,3.95,0)" xlink:href="#F"/><use transform="matrix(0.05,0,0,0.05,13.949999999999998,0)" xlink:href="#z"/><use transform="matrix(0.05,0,0,0.05,18.95,0)" xlink:href="#x"/><use transform="matrix(0.05,0,0,0.05,28.950000000000003,0)" xlink:href="#G"/><use transform="matrix(0.05,0,0,0.05,34.9,0)" xlink:href="#H"/><use transform="matrix(0.05,0,0,0.05,43.9,0)" xlink:href="#I"/><use transform="matrix(0.05,0,0,0.05,53.900000000000006,0)" xlink:href="#J"/></g><g id="m"><use transform="matrix(0.05,0,0,0.05,0,0)" xlink:href="#D"/><use transform="matrix(0.05,0,0,0.05,14.950000000000001,0)" xlink:href="#x"/><use transform="matrix(0.05,0,0,0.05,24.950000000000003,0)" xlink:href="#x"/><use transform="matrix(0.05,0,0,0.05,34.95,0)" xlink:href="#z"/><use transform="matrix(0.05,0,0,0.05,39.95,0)" xlink:href="#M"/></g><path d="M199 0l-22-63H83L61 0H9l90-248h61L250 0h-51zm-33-102l-36-108c-10 38-24 72-36 108h72" id="R"/><use transform="matrix(0.05,0,0,0.05,0,0)" xlink:href="#R" id="n"/><path d="M182-130c37 4 62 22 62 59C244 23 116-4 24 0v-248c84 5 203-23 205 63 0 31-19 50-47 55zM76-148c40-3 101 13 101-30 0-44-60-28-101-31v61zm0 110c48-3 116 14 116-37 0-48-69-32-116-35v72" id="S"/><use transform="matrix(0.05,0,0,0.05,0,0)" xlink:href="#S" id="o"/><path d="M67-125c0 53 21 87 73 88 37 1 54-22 65-47l45 17C233-25 199 4 140 4 58 4 20-42 15-125 8-235 124-281 211-232c18 10 29 29 36 50l-46 12c-8-25-30-41-62-41-52 0-71 34-72 86" id="T"/><use transform="matrix(0.05,0,0,0.05,0,0)" xlink:href="#T" id="p"/><path d="M24-248c120-7 223 5 221 122C244-46 201 0 124 0H24v-248zM76-40c74 7 117-18 117-86 0-67-45-88-117-82v168" id="U"/><use transform="matrix(0.05,0,0,0.05,0,0)" xlink:href="#U" id="q"/><g id="r"><use transform="matrix(0.05,0,0,0.05,0,0)" xlink:href="#C"/><use transform="matrix(0.05,0,0,0.05,3.95,0)" xlink:href="#F"/><use transform="matrix(0.05,0,0,0.05,13.949999999999998,0)" xlink:href="#z"/><use transform="matrix(0.05,0,0,0.05,18.95,0)" xlink:href="#x"/><use transform="matrix(0.05,0,0,0.05,28.950000000000003,0)" xlink:href="#G"/><use transform="matrix(0.05,0,0,0.05,34.9,0)" xlink:href="#H"/><use transform="matrix(0.05,0,0,0.05,43.9,0)" xlink:href="#I"/><use transform="matrix(0.05,0,0,0.05,53.900000000000006,0)" xlink:href="#J"/></g><path d="M85-194c31 0 48 13 60 33l-1-100h32l1 261h-30c-2-10 0-23-3-31C134-8 116 4 85 4 32 4 16-35 15-94c0-66 23-100 70-100zm9 24c-40 0-46 34-46 75 0 40 6 74 45 74 42 0 51-32 51-76 0-42-9-74-50-73" id="V"/><path d="M84 4C-5 8 30-112 23-190h32v120c0 31 7 50 39 49 72-2 45-101 50-169h31l1 190h-30c-1-10 1-25-2-33-11 22-28 36-60 37" id="W"/><path d="M177-190C167-65 218 103 67 71c-23-6-38-20-44-43l32-5c15 47 100 32 89-28v-30C133-14 115 1 83 1 29 1 15-40 15-95c0-56 16-97 71-98 29-1 48 16 59 35 1-10 0-23 2-32h30zM94-22c36 0 50-32 50-73 0-42-14-75-50-75-39 0-46 34-46 75s6 73 46 73" id="X"/><g id="s"><use transform="matrix(0.05,0,0,0.05,0,0)" xlink:href="#V"/><use transform="matrix(0.05,0,0,0.05,10,0)" xlink:href="#W"/><use transform="matrix(0.05,0,0,0.05,20,0)" xlink:href="#G"/><use transform="matrix(0.05,0,0,0.05,25.950000000000003,0)" xlink:href="#C"/><use transform="matrix(0.05,0,0,0.05,29.899999999999995,0)" xlink:href="#F"/><use transform="matrix(0.05,0,0,0.05,39.9,0)" xlink:href="#X"/></g><path d="M24 0v-248h195v40H76v63h132v40H76v65h150V0H24" id="Y"/><use transform="matrix(0.05,0,0,0.05,0,0)" xlink:href="#Y" id="t"/></defs></g></svg>